%
M48
M72
T01C0.0150
T02C0.0236
T03C0.0315
T04C0.0360
T05C0.0394
T06C0.0400
T07C0.0433
T08C0.0472
T09C0.1102
%
T01
X6830Y10380
X6830Y10980
X12780Y20580
X13630Y20630
X17280Y21130
X17280Y21730
X17280Y23580
X17280Y24230
X17280Y24930
X17330Y25630
X17330Y26330
X17330Y27030
X17330Y27680
X19980Y28980
X20430Y28380
X20900Y31300
X19330Y35180
X18530Y36430
X17880Y36430
X16530Y36180
X15930Y36180
X15030Y36180
X14430Y36180
X13630Y34930
X14430Y34280
X15030Y34280
X15930Y34230
X16530Y34230
X13230Y32630
X11130Y29080
X9780Y28680
X9130Y28680
X8130Y27830
X8130Y27130
X5130Y27130
X5130Y27830
X4000Y30010
X4480Y31200
X4510Y31610
X4970Y31610
X4960Y31210
X4770Y32930
X3950Y32910
X4780Y33830
X6290Y33200
X6620Y33400
X7480Y34630
X6880Y34880
X6330Y35180
X5830Y35580
X5780Y36320
X3960Y38680
X3200Y39190
X2730Y39210
X2690Y39970
X1930Y40770
X4940Y38800
X8530Y37430
X8930Y37430
X9380Y37430
X9830Y37430
X9330Y38330
X8830Y37980
X10530Y39680
X10150Y43050
X9980Y45280
X10530Y45280
X8180Y46730
X7380Y45280
X6980Y44690
X7530Y43030
X4895Y43810
X14430Y37580
X15330Y37680
X15930Y37980
X16380Y38280
X17080Y38280
X17730Y38280
X18180Y38980
X18580Y39380
X20620Y39730
X20740Y36440
X15530Y39930
X15580Y40430
X17180Y44230
X19780Y44330
X20280Y44330
X20280Y42830
X19730Y42830
X25030Y45490
X29230Y37280
X29330Y34630
X29380Y33180
X28780Y23780
X25780Y22480
X27380Y18330
X28080Y17630
X27080Y17130
X26680Y17130
X26230Y17130
X25830Y17130
X18130Y16830
X17430Y16830
X8580Y21030
X8080Y21030
X7530Y21030
X6980Y21030
X8130Y30280
X8680Y30280
X7880Y30990
X8130Y31630
X8680Y31630
X9180Y32680
X2640Y33010
X2640Y32020
T02
X12680Y35680
T03
X11936Y44210
X13904Y44210
T04
X23980Y48750
X24980Y48750
T05
X22680Y42889
X22680Y41511
X22680Y39389
X22680Y38011
X22680Y35889
X22680Y34511
X22680Y30889
X22680Y29511
X22680Y27389
X22680Y26011
X22680Y23889
X22680Y22511
X7680Y18389
X7680Y17011
X7680Y13389
X7680Y12011
X7680Y8389
X7680Y7011
X7680Y3389
X7680Y2011
X47680Y1971
X47680Y3349
X47680Y6971
X47680Y8349
X47680Y11971
X47680Y13349
X47680Y16971
X47680Y18349
X47680Y21971
X47680Y23349
X47680Y26971
X47680Y28349
X47680Y31971
X47680Y33349
X47680Y36971
X47680Y38349
X47680Y41971
X47680Y43349
X47680Y46971
X47680Y48349
T06
X22180Y48150
X22180Y47150
X22180Y46150
X22180Y45150
X22180Y49150
X17180Y48680
X17180Y47680
X17180Y46680
X17180Y45680
T07
X31869Y45180
X31869Y43841
X31869Y42503
X33869Y43172
X33869Y41834
X33869Y44511
X33869Y45849
X33869Y47188
X33869Y48526
X31869Y47857
X31869Y46519
X39369Y46519
X39369Y47857
X41369Y47188
X41369Y45849
X41369Y44511
X41369Y43172
X41369Y41834
X39369Y42503
X39369Y43841
X39369Y45180
X41369Y48526
X49180Y40180
X41369Y38526
X41369Y37188
X41369Y35849
X41369Y34511
X41369Y33172
X41369Y31834
X39369Y32503
X39369Y33841
X39369Y35180
X39369Y36519
X39369Y37857
X33869Y37188
X33869Y35849
X33869Y34511
X33869Y33172
X33869Y31834
X31869Y32503
X31869Y33841
X31869Y35180
X31869Y36519
X31869Y37857
X33869Y38526
X33869Y28526
X33869Y27188
X33869Y25849
X33869Y24511
X33869Y23172
X33869Y21834
X31869Y22503
X31869Y23841
X31869Y25180
X31869Y26519
X31869Y27857
X39369Y27857
X39369Y26519
X39369Y25180
X39369Y23841
X39369Y22503
X41369Y23172
X41369Y24511
X41369Y25849
X41369Y27188
X41369Y28526
X41369Y21834
X41369Y18526
X41369Y17188
X41369Y15849
X41369Y14511
X41369Y13172
X41369Y11834
X39369Y12503
X39369Y13841
X39369Y15180
X39369Y16519
X39369Y17857
X33869Y17188
X33869Y18526
X31869Y17857
X31869Y16519
X31869Y15180
X31869Y13841
X31869Y12503
X33869Y13172
X33869Y14511
X33869Y15849
X33869Y11834
X33869Y8526
X33869Y7188
X33869Y5849
X33869Y4511
X33869Y3172
X33869Y1834
X31869Y2503
X31869Y3841
X31869Y5180
X31869Y6519
X31869Y7857
X39369Y7857
X39369Y6519
X39369Y5180
X39369Y3841
X39369Y2503
X41369Y3172
X41369Y4511
X41369Y5849
X41369Y7188
X41369Y8526
X41369Y1834
X49180Y680
X49180Y9680
X49180Y19680
X49180Y30180
X23491Y17857
X23491Y16519
X23491Y15180
X23491Y13841
X23491Y12503
X21491Y13172
X21491Y14511
X21491Y15849
X21491Y17188
X21491Y18526
X15991Y17857
X15991Y16519
X15991Y15180
X15991Y13841
X15991Y12503
X13991Y13172
X13991Y14511
X13991Y15849
X13991Y17188
X13991Y18526
X13991Y11834
X13991Y8526
X13991Y7188
X13991Y5849
X13991Y4511
X13991Y3172
X13991Y1834
X15991Y2503
X15991Y3841
X15991Y5180
X15991Y6519
X15991Y7857
X21491Y7188
X21491Y8526
X23491Y7857
X23491Y6519
X23491Y5180
X23491Y3841
X23491Y2503
X21491Y3172
X21491Y4511
X21491Y5849
X21491Y1834
X21491Y11834
X5680Y9680
X5680Y19680
X5680Y23830
T08
X17130Y3430
X18280Y1630
T09
X2630Y2430
X27630Y1630
X47930Y5030
X48030Y45130
X3080Y47580
M30
