**ABCDEFGHIJKLMNOPQRSTUVWXYZabcdefghijklmnopqrstuvwxyz**************************
**PARASOLID !"#$%&'()*+,-./:;<=>?@[\]^_`{|}~0123456789**************************
**PART1;
MC=x86;
MC_MODEL=x86 Family 6 Model 15 Stepping 6, GenuineIntel;
MC_ID=unknown;
OS=Windows_NT;
OS_RELEASE=unknown;
FRU=Parasolid Version 24.0, build 201, 10-11-2011;
APPL=SolidWorks 2012-2012018;
SITE=;
USER=unknown;
FORMAT=text;
GUISE=transmit;
KEY=FC6D6F7D-3F6C-4879-9D16-B5E9907AE611;
FILE=FC6D6F7D-3F6C-4879-9D16-B5E9907AE611.x_t;
DATE=Wed Sep 05 17:12:59 2012;
**PART2;
SCH=SCH_2400201_20000;
USFLD_SIZE=0;
**PART3;
**END_OF_HEADER*****************************************************************
T51 : TRANSMIT FILE created by modeller version 240020117 SCH_1200000_120060 12
 1 1118 0 2 0 0 0 0 1e3 1e-8 0 3 0 1 0 1 1 4 5 6 7 8 9 10 70 2 0 1 0 0 4 2 20 4
 11 11 1 T13 4 860 0 1 0 12 0 0 13 0 68 5 772 0 12 14 0 0 +15 .05732145 0 .06570
98 0 1 0 ????0 0 1 .00873125 31 6 954 0 16 17 0 0 -0 0 .05715 0 0 1 1 0 0 .04859
02 29 7 909 0 10 18 0 .05732145 -.03405593920151815 .0657098 19 8 5 0 1 13 0 19
 V16 9 22 0 ?20 0 21 22 0 0 1 18 10 57 0 23 0 24 7 ?1 17 23 0 25 26 26 10 27 28
 0 29 -18 24 60 0 26 10 0 18 ?1 17 26 0 25 23 23 24 30 31 0 32 -29 18 904 0 24 0
 7 .05732145 .03405593920151815 .0657098 15 25 964 0 23 33 34 17 30 0 35 36 36 1
0 26 31 0 37 +16 31 128 0 ?30 38 28 39 0 0 1 17 32 0 40 37 37 24 29 38 0 27 -15
 40 49 0 32 41 42 17 37 0 40 32 32 10 36 43 0 0 -17 29 0 44 27 27 10 32 38 0 30
 +16 38 52 0 ?29 43 31 45 0 0 1 17 27 0 44 29 29 24 23 28 0 36 +15 44 168 0 27 4
6 0 16 28 170 0 ?27 31 47 48 0 0 1 17 36 0 35 30 30 24 37 43 0 0 +15 35 126 0 36
 49 50 16 43 51 0 ?36 21 38 51 0 0 1 16 21 15 0 ?52 9 43 53 0 0 1 30 51 64 0 43
 54 55 0 +.05732145 -150669826507598e-31 .0657098 0 1 0 31 54 13 0 1 0 51 56 +.0
5732145 0 .12303125 1 0 0 0 0 1 .05501005 31 55 757 0 57 51 15 0 -.05732145 -150
669826507598e-31 .12303125 -1 0 0 0 0 1 .0485902 16 57 629 0 ?58 16 59 55 0 0 1
 31 15 778 0 1 55 60 61 +.05732145 0 .12303125 1 0 0 0 0 1 .0485902 31 60 839 0
 59 15 22 0 -0 0 .0657098 0 0 1 1 0 0 .0485902 141 61 5 61 61 15 16 59 693 0 ?62
 57 0 60 0 0 1 38 22 867 0 9 60 53 0 +63 64 65 66 66 38 53 872 0 21 22 45 0 +67
 63 68 69 69 68 63 12 0 70 0 64 71 +54 .05732145 0 .0657098 0 1 0 ????0 0 1 .002
3114 50 64 63 0 41 63 67 72 +.05732145 -150669826507598e-31 .12303125 1 0 0 0 0
 -1 40 21 65 0 1 21 .00349741615466878 .3585055552480565 ??.05732145 -6736565675
40867e-32 .0680212 .05732145 -.0046228 .0682157839236954 .05732145 -.02250643292
618845 .0728359705611775 .05732145 -.0378526362683358 .0831152941860706 .0573214
5 -.0489312420122222 .0978948390361444 .05732145 -.054493221399863 .115508323543
6256 .05732145 -.0539115034471393 .1339699609419524 .05732145 -.0472516724404483
 .151198341660004 .05732145 -.03526457380591845 .1652510964621725 .05732145 -.01
93016619833458 .174543883845331 .05732145 3564655257008295e-33 .1780413 .0573214
5 .0182086341091186 .174940317077754 .05732145 .03436438284875265 .1659869806121
88 .05732145 .0466458081021324 .152190711371938 .05732145 .0536682723358771 .135
1069340586622 .05732145 .0546400459783567 .116661714971007 .05732145 .0494515689
230226 .09893461264011 .05732145 .0386878025993249 .0839242233802457 .05732145 .
02356228000891815 .0733228547152613 .05732145 .00578028908529454 .06832573054270
09 .05732145 -673656567540867e-32 .0680212 41 1 66 H.05732145 -673656567540867e-
32 .0680212 14 41 47 73 1e-8 70 49 40 4 64 -0 0 49 70 19 50 67 138 0 49 64 74 75
 +0 0 .0657098 0 0 1 1 0 0 141 72 22 72 72 64 14 49 124 76 1e-8 41 46 35 4 67 +0
 0 46 41 19 51 74 183 0 46 67 77 0 +.12303125 -150669826507598e-31 .12303125 -1
 0 0 .066675 0 0 1 141 75 53 75 75 67 14 46 166 78 1e-8 49 33 79 4 74 +0 0 33 49
 19 51 77 270 0 33 74 80 0 +0 0 0 0 0 1 .066675 1 0 0 14 33 257 81 1e-8 46 82 25
 4 77 +0 0 82 46 19 50 80 349 0 82 77 83 0 +.12303125 -3110602869834275e-33 .025
4 1 0 0 0 0 -1 14 82 337 84 1e-8 33 85 86 4 80 +0 0 85 33 19 50 83 387 0 85 80 8
7 0 +0 0 0 0 0 1 1 0 0 14 85 375 88 1e-8 82 89 90 4 83 -0 0 89 82 19 51 87 428 0
 89 83 91 0 +.09445625 -150669826507598e-31 .12303125 -1 0 0 .05715 0 0 1 14 89
 417 92 1e-8 85 93 94 4 87 -0 0 93 85 19 51 91 488 0 93 87 95 0 +0 0 .028575 0 0
 1 .05715 1 0 0 14 93 477 96 1e-8 89 97 98 4 91 -0 0 97 89 19 50 95 557 0 97 91
 99 0 +.06588125 -123452051396548e-31 .10080625 -1 0 0 0 0 1 14 97 545 100 1e-8
 93 101 102 4 95 -0 0 101 93 19 50 99 599 0 101 95 103 0 +0 0 .05715 0 0 1 1 0 0
 14 101 587 104 1e-8 97 105 106 4 99 -0 0 105 97 19 51 103 638 0 105 99 14 0 +.0
6160135 -150669826507598e-31 .12303125 -1 0 0 .0485902 0 0 1 14 105 625 107 1e-8
 101 108 109 4 103 -0 0 108 101 19 51 14 702 0 108 103 5 0 +0 0 .0614299 0 0 1 .
0485902 1 0 0 14 108 689 110 1e-8 105 12 111 4 14 -0 0 12 105 19 81 1 110 1116 1
12 108 113 0 107 114 115 14 12 759 114 1e-8 108 0 116 4 5 -0 0 0 108 19 15 111 9
72 0 117 108 118 13 19 3 0 0 0 0 0 0 8 70 14 70 2 119 1e-8 0 41 120 4 63 +0 0 41
 0 19 81 1 119 1118 112 70 121 0 114 0 122 15 120 960 0 52 70 123 17 52 0 120 52
 52 0 124 21 0 0 +15 123 7 0 20 70 0 17 20 0 123 20 20 0 125 9 0 0 +17 125 0 42
 125 125 0 20 9 0 0 -15 42 50 0 125 41 0 17 124 0 50 124 124 0 52 21 0 0 -15 50
 127 0 124 49 0 80 1 112 126 127 9000 1 1 1 1 1 1 1 1 FFFFTFTFFFFFFF1 81 1 121 1
074 128 70 0 119 129 0 130 81 1 114 1117 112 12 131 0 110 119 132 82 1 122 99999
9 81 1 131 1061 128 12 0 114 0 113 133 82 1 132 999999 80 1 128 0 134 8001 0 0 0
 0 3 5 0 0 FFFFTFTFFFFFFF2 81 1 113 1062 128 108 0 110 131 135 136 83 3 133 .752
941176470588 .752941176470588 .752941176470588 81 1 135 1063 128 105 0 107 113 1
37 138 83 3 136 .752941176470588 .752941176470588 .752941176470588 81 1 107 1115
 112 105 135 0 104 110 139 81 1 137 1064 128 101 0 104 135 140 141 83 3 138 .752
941176470588 .752941176470588 .752941176470588 81 1 104 1114 112 101 137 0 100 1
07 142 81 1 140 1065 128 97 0 100 137 143 144 83 3 141 .752941176470588 .7529411
76470588 .752941176470588 81 1 100 1113 112 97 140 0 96 104 145 81 1 143 1066 12
8 93 0 96 140 146 147 83 3 144 .752941176470588 .752941176470588 .75294117647058
8 81 1 96 1112 112 93 143 0 92 100 148 81 1 146 1067 128 89 0 92 143 149 150 83
 3 147 .752941176470588 .752941176470588 .752941176470588 81 1 92 1111 112 89 14
6 0 88 96 151 81 1 149 1068 128 85 0 88 146 152 153 83 3 150 .752941176470588 .7
52941176470588 .752941176470588 81 1 88 1110 112 85 149 0 84 92 154 81 1 152 106
9 128 82 0 84 149 155 156 83 3 153 .752941176470588 .752941176470588 .7529411764
70588 81 1 84 1109 112 82 152 0 81 88 157 81 1 155 1070 128 33 0 81 152 158 159
 83 3 156 .752941176470588 .752941176470588 .752941176470588 81 1 81 1108 112 33
 155 0 78 84 160 81 1 158 1071 128 46 0 78 155 161 162 83 3 159 .752941176470588
 .752941176470588 .752941176470588 81 1 78 1107 112 46 158 0 76 81 163 81 1 161
 1072 128 49 0 76 158 129 164 83 3 162 .752941176470588 .752941176470588 .752941
176470588 81 1 76 1106 112 49 161 0 73 78 165 81 1 129 1073 128 41 0 73 161 121
 166 83 3 164 .752941176470588 .752941176470588 .752941176470588 81 1 73 1105 11
2 41 129 0 0 76 167 83 3 166 .752941176470588 .752941176470588 .752941176470588
 82 1 167 999999 82 1 165 999999 82 1 163 999999 82 1 160 999999 82 1 157 999999
 82 1 154 999999 82 1 151 999999 82 1 148 999999 82 1 145 999999 82 1 142 999999
 82 1 139 999999 79 15 134 SDL/TYSA_COLOUR83 3 130 .752941176470588 .75294117647
0588 .752941176470588 79 14 127 SWEntUnchanged17 117 0 111 117 117 0 62 59 0 0 -
15 118 691 0 168 108 0 17 168 0 118 168 168 0 169 16 0 0 +17 169 0 170 169 169 0
 168 16 0 0 -16 16 593 0 ?168 171 57 6 0 0 1 16 171 551 0 ?172 173 16 17 0 0 1 1
7 172 0 174 172 172 0 175 171 0 0 +16 173 481 0 ?176 177 171 178 0 0 1 31 17 948
 0 171 178 6 0 -.06588125 -150669826507598e-31 .12303125 -1 0 0 0 0 1 .0485902 3
1 178 942 0 173 179 17 0 -0 0 .05715 0 0 1 1 0 0 .05715 31 179 936 0 177 180 178
 0 -.06588125 -150669826507598e-31 .12303125 -1 0 0 0 0 1 .05715 16 177 423 0 ?1
81 182 173 179 0 0 1 31 180 930 0 182 183 179 0 -0 0 0 0 0 1 1 0 0 .05715 16 182
 381 0 ?184 185 177 180 0 0 1 31 183 924 0 185 186 180 0 +.12303125 -15066982650
7598e-31 .12303125 -1 0 0 0 0 1 .05715 16 185 343 0 ?187 188 182 183 0 0 1 31 18
6 918 0 188 189 183 0 +0 0 0 0 0 1 1 0 0 .066675 16 188 260 0 ?190 47 185 186 0
 0 1 31 189 912 0 47 48 186 0 +.12303125 -150669826507598e-31 .12303125 -1 0 0 0
 0 1 .066675 16 47 174 0 ?191 28 188 189 0 0 1 32 48 903 0 28 39 189 0 +0 -75334
9132537989e-32 .12303125 .707106781186548 0 .707106781186548 -.707106781186548 0
 .707106781186548 .0942926892712261 .066675 31 39 896 0 31 45 48 0 +0 0 .0657098
 0 0 1 1 0 0 .066675 31 45 874 0 38 53 39 0 -.05732145 -150669826507598e-31 .123
03125 -1 0 0 0 0 1 .066675 17 191 0 79 191 191 0 192 47 0 0 +15 79 962 0 191 46
 44 17 192 0 86 192 192 0 191 47 0 0 -15 86 339 0 192 82 193 15 193 340 0 187 82
 0 17 187 0 193 187 187 0 194 185 0 0 +17 194 0 94 194 194 0 187 185 0 0 -15 94
 966 0 194 89 195 15 195 419 0 196 89 0 17 196 0 195 196 196 0 181 177 0 0 -17 1
81 0 102 181 181 0 196 177 0 0 +15 102 547 0 181 97 197 15 197 548 0 175 97 0 17
 175 0 197 175 175 0 172 171 0 0 -17 190 0 34 190 190 0 198 188 0 0 +15 34 259 0
 190 33 0 17 198 0 90 198 198 0 190 188 0 0 -15 90 377 0 198 85 199 15 199 378 0
 200 85 0 17 200 0 199 200 200 0 184 182 0 0 -17 184 0 201 184 184 0 200 182 0 0
 +15 201 479 0 184 93 0 17 176 0 106 176 176 0 202 173 0 0 +15 106 589 0 176 101
 170 17 202 0 98 202 202 0 176 173 0 0 -15 98 968 0 202 93 201 15 170 590 0 169
 101 0 15 174 627 0 172 105 0 17 62 0 203 62 62 0 117 59 0 0 +15 203 761 0 62 12
 0 15 116 974 0 58 12 203 17 58 0 116 58 58 0 204 57 0 0 +17 204 0 109 204 204 0
 58 57 0 0 -15 109 970 0 204 105 174 82 1 115 999999 141 71 22 205 205 63 141 20
5 53 71 71 63 40 21 68 0 1 21 .00349741615466879 .358505555248057 ??-.05501005 2
694626270163465e-33 .0657098 -.0519090670777538 -.0182086341091186 .0657098 -.04
29557306121879 -.03436438284875265 .0657098 -.029159461371938 -.0466458081021324
 .0657098 -.01207568405866222 -.0536682723358771 .0657098 .006369535028993 -.054
6400459783567 .0657098 .0240966373598899 -.0494515689230226 .0657098 .0391070266
1975425 -.03868780259932495 .0657098 .0497083952847387 -.0235622800089182 .06570
98 .054705519457299 -.00578028908529458 .0657098 .05501005 -673656567540867e-32
 .0657098 .0548154660763046 .0046228 .0657098 .0501952794388225 .022506432926188
45 .0657098 .03991595581392945 .0378526362683358 .0657098 .02513641096385555 .04
89312420122222 .0657098 .00752292645637438 .054493221399863 .0657098 -.010938710
9419524 .0539115034471393 .0657098 -.02816709166000415 .0472516724404483 .065709
8 -.04221984646217265 .0352645738059184 .0657098 -.0515126338453312 .01930166198
33458 .0657098 -.05501005 2694626270163465e-33 .0657098 41 1 69 H-.05501005 2694
626270163465e-33 .0657098 141 56 63 56 56 54 19 13 861 0 1 0 8 4 S74 20 11 2 0 1
19 121 0 0 0 0 0 0 0 0 0 0 0 0 0 0 0 0 0 0 1 0 
