G75*
G70*
%OFA0B0*%
%FSLAX24Y24*%
%IPPOS*%
%LPD*%
%AMOC8*
5,1,8,0,0,1.08239X$1,22.5*
%
%ADD10R,0.0671X0.0186*%
%ADD11R,0.0186X0.0671*%
%ADD12C,0.0180*%
%ADD13R,0.1110X0.1110*%
%ADD14C,0.0780*%
%ADD15R,0.0356X0.0434*%
%ADD16C,0.0940*%
%ADD17C,0.0840*%
%ADD18R,0.0710X0.0631*%
%ADD19R,0.0434X0.0356*%
%ADD20R,0.0710X0.0789*%
%ADD21R,0.0513X0.0474*%
%ADD22C,0.0680*%
%ADD23C,0.0640*%
%ADD24R,0.0474X0.0513*%
%ADD25R,0.0277X0.0178*%
%ADD26C,0.0476*%
%ADD27C,0.0390*%
%ADD28C,0.0789*%
%ADD29C,0.0730*%
%ADD30C,0.1582*%
D10*
X005879Y036818D03*
X005879Y037015D03*
X005879Y037211D03*
X005879Y037408D03*
X005879Y037605D03*
X005879Y037802D03*
X005879Y037999D03*
X005879Y038196D03*
X005879Y038393D03*
X005879Y038589D03*
X005879Y038786D03*
X005879Y038983D03*
X005879Y039180D03*
X005879Y039377D03*
X005879Y039574D03*
X005879Y039771D03*
X005879Y039967D03*
X005879Y040164D03*
X005879Y040361D03*
X005879Y040558D03*
X005879Y040755D03*
X005879Y040952D03*
X005879Y041149D03*
X005879Y041345D03*
X005879Y041542D03*
X011981Y041542D03*
X011981Y041345D03*
X011981Y041149D03*
X011981Y040952D03*
X011981Y040755D03*
X011981Y040558D03*
X011981Y040361D03*
X011981Y040164D03*
X011981Y039967D03*
X011981Y039771D03*
X011981Y039574D03*
X011981Y039377D03*
X011981Y039180D03*
X011981Y038983D03*
X011981Y038786D03*
X011981Y038589D03*
X011981Y038393D03*
X011981Y038196D03*
X011981Y037999D03*
X011981Y037802D03*
X011981Y037605D03*
X011981Y037408D03*
X011981Y037211D03*
X011981Y037015D03*
X011981Y036818D03*
D11*
X011292Y036129D03*
X011095Y036129D03*
X010899Y036129D03*
X010702Y036129D03*
X010505Y036129D03*
X010308Y036129D03*
X010111Y036129D03*
X009914Y036129D03*
X009717Y036129D03*
X009521Y036129D03*
X009324Y036129D03*
X009127Y036129D03*
X008930Y036129D03*
X008733Y036129D03*
X008536Y036129D03*
X008339Y036129D03*
X008143Y036129D03*
X007946Y036129D03*
X007749Y036129D03*
X007552Y036129D03*
X007355Y036129D03*
X007158Y036129D03*
X006961Y036129D03*
X006765Y036129D03*
X006568Y036129D03*
X006568Y042231D03*
X006765Y042231D03*
X006961Y042231D03*
X007158Y042231D03*
X007355Y042231D03*
X007552Y042231D03*
X007749Y042231D03*
X007946Y042231D03*
X008143Y042231D03*
X008339Y042231D03*
X008536Y042231D03*
X008733Y042231D03*
X008930Y042231D03*
X009127Y042231D03*
X009324Y042231D03*
X009521Y042231D03*
X009717Y042231D03*
X009914Y042231D03*
X010111Y042231D03*
X010308Y042231D03*
X010505Y042231D03*
X010702Y042231D03*
X010899Y042231D03*
X011095Y042231D03*
X011292Y042231D03*
D12*
X005271Y032361D02*
X005271Y032061D01*
X005072Y032061D02*
X005072Y032361D01*
X004873Y032361D02*
X004873Y032061D01*
X004663Y032061D02*
X004663Y032361D01*
X004465Y032361D02*
X004465Y032061D01*
X004265Y032061D02*
X004265Y032361D01*
X004090Y031897D02*
X003790Y031897D01*
X003790Y031697D02*
X004090Y031697D01*
X004090Y031499D02*
X003790Y031499D01*
X003790Y031289D02*
X004090Y031289D01*
X004090Y031090D02*
X003790Y031090D01*
X003790Y030891D02*
X004090Y030891D01*
X004265Y030727D02*
X004265Y030427D01*
X004465Y030427D02*
X004465Y030727D01*
X004663Y030727D02*
X004663Y030427D01*
X004873Y030427D02*
X004873Y030727D01*
X005072Y030727D02*
X005072Y030427D01*
X005271Y030427D02*
X005271Y030727D01*
X005445Y030891D02*
X005745Y030891D01*
X005745Y031090D02*
X005445Y031090D01*
X005445Y031289D02*
X005745Y031289D01*
X005745Y031499D02*
X005445Y031499D01*
X005445Y031697D02*
X005745Y031697D01*
X005745Y031897D02*
X005445Y031897D01*
D13*
X004764Y031398D03*
D14*
X013991Y018526D03*
X013991Y017188D03*
X013991Y015849D03*
X013991Y014511D03*
X013991Y013172D03*
X013991Y011834D03*
X015991Y012503D03*
X015991Y013841D03*
X015991Y015180D03*
X015991Y016519D03*
X015991Y017857D03*
X021491Y017188D03*
X021491Y018526D03*
X023491Y017857D03*
X023491Y016519D03*
X023491Y015180D03*
X023491Y013841D03*
X023491Y012503D03*
X021491Y013172D03*
X021491Y014511D03*
X021491Y015849D03*
X021491Y011834D03*
X021491Y008526D03*
X021491Y007188D03*
X021491Y005849D03*
X021491Y004511D03*
X021491Y003172D03*
X021491Y001834D03*
X023491Y002503D03*
X023491Y003841D03*
X023491Y005180D03*
X023491Y006519D03*
X023491Y007857D03*
X015991Y007857D03*
X015991Y006519D03*
X015991Y005180D03*
X015991Y003841D03*
X015991Y002503D03*
X013991Y003172D03*
X013991Y004511D03*
X013991Y005849D03*
X013991Y007188D03*
X013991Y008526D03*
X013991Y001834D03*
X031869Y002503D03*
X031869Y003841D03*
X031869Y005180D03*
X031869Y006519D03*
X031869Y007857D03*
X033869Y007188D03*
X033869Y008526D03*
X033869Y005849D03*
X033869Y004511D03*
X033869Y003172D03*
X033869Y001834D03*
X039369Y002503D03*
X039369Y003841D03*
X039369Y005180D03*
X039369Y006519D03*
X039369Y007857D03*
X041369Y007188D03*
X041369Y008526D03*
X041369Y005849D03*
X041369Y004511D03*
X041369Y003172D03*
X041369Y001834D03*
X041369Y011834D03*
X041369Y013172D03*
X041369Y014511D03*
X041369Y015849D03*
X041369Y017188D03*
X041369Y018526D03*
X039369Y017857D03*
X039369Y016519D03*
X039369Y015180D03*
X039369Y013841D03*
X039369Y012503D03*
X033869Y013172D03*
X033869Y014511D03*
X033869Y015849D03*
X033869Y017188D03*
X033869Y018526D03*
X031869Y017857D03*
X031869Y016519D03*
X031869Y015180D03*
X031869Y013841D03*
X031869Y012503D03*
X033869Y011834D03*
X033869Y021834D03*
X033869Y023172D03*
X033869Y024511D03*
X033869Y025849D03*
X033869Y027188D03*
X033869Y028526D03*
X031869Y027857D03*
X031869Y026519D03*
X031869Y025180D03*
X031869Y023841D03*
X031869Y022503D03*
X039369Y022503D03*
X039369Y023841D03*
X039369Y025180D03*
X039369Y026519D03*
X039369Y027857D03*
X041369Y027188D03*
X041369Y025849D03*
X041369Y024511D03*
X041369Y023172D03*
X041369Y021834D03*
X041369Y028526D03*
X041369Y031834D03*
X041369Y033172D03*
X041369Y034511D03*
X041369Y035849D03*
X041369Y037188D03*
X041369Y038526D03*
X039369Y037857D03*
X039369Y036519D03*
X039369Y035180D03*
X039369Y033841D03*
X039369Y032503D03*
X033869Y033172D03*
X033869Y031834D03*
X031869Y032503D03*
X031869Y033841D03*
X031869Y035180D03*
X031869Y036519D03*
X031869Y037857D03*
X033869Y037188D03*
X033869Y035849D03*
X033869Y034511D03*
X033869Y038526D03*
X033869Y041834D03*
X033869Y043172D03*
X033869Y044511D03*
X033869Y045849D03*
X033869Y047188D03*
X033869Y048526D03*
X031869Y047857D03*
X031869Y046519D03*
X031869Y045180D03*
X031869Y043841D03*
X031869Y042503D03*
X039369Y042503D03*
X039369Y043841D03*
X039369Y045180D03*
X039369Y046519D03*
X039369Y047857D03*
X041369Y047188D03*
X041369Y045849D03*
X041369Y044511D03*
X041369Y043172D03*
X041369Y041834D03*
X041369Y048526D03*
D15*
X042924Y048680D03*
X043436Y048680D03*
X043436Y041580D03*
X042924Y041580D03*
X042924Y038680D03*
X043436Y038680D03*
X043436Y031680D03*
X042924Y031680D03*
X042924Y028680D03*
X043436Y028680D03*
X043436Y021680D03*
X042924Y021680D03*
X042924Y018680D03*
X043436Y018680D03*
X043436Y011680D03*
X042924Y011680D03*
X042924Y008680D03*
X043436Y008680D03*
X043436Y001680D03*
X042924Y001680D03*
X035936Y001680D03*
X035424Y001680D03*
X035424Y008680D03*
X035936Y008680D03*
X035936Y011680D03*
X035424Y011680D03*
X035424Y018680D03*
X035936Y018680D03*
X035936Y021680D03*
X035424Y021680D03*
X035424Y028680D03*
X035936Y028680D03*
X035936Y031680D03*
X035424Y031680D03*
X035424Y038680D03*
X035936Y038680D03*
X035936Y041680D03*
X035424Y041680D03*
X035424Y048680D03*
X035936Y048680D03*
X014936Y039930D03*
X014424Y039930D03*
X004476Y039180D03*
X003964Y039180D03*
X003886Y033670D03*
X003374Y033670D03*
X011924Y018680D03*
X012436Y018680D03*
X019424Y018680D03*
X019936Y018680D03*
X019936Y011680D03*
X019424Y011680D03*
X019424Y008680D03*
X019936Y008680D03*
X019936Y001680D03*
X019424Y001680D03*
X012436Y001680D03*
X011924Y001680D03*
X011924Y008680D03*
X012436Y008680D03*
X012436Y011680D03*
X011924Y011680D03*
D16*
X007680Y012011D03*
X007680Y013389D03*
X007680Y017011D03*
X007680Y018389D03*
X007680Y008389D03*
X007680Y007011D03*
X007680Y003389D03*
X007680Y002011D03*
X022680Y022511D03*
X022680Y023889D03*
X022680Y026011D03*
X022680Y027389D03*
X022680Y029511D03*
X022680Y030889D03*
X022680Y034511D03*
X022680Y035889D03*
X022680Y038011D03*
X022680Y039389D03*
X022680Y041511D03*
X022680Y042889D03*
X047680Y043349D03*
X047680Y041971D03*
X047680Y038349D03*
X047680Y036971D03*
X047680Y033349D03*
X047680Y031971D03*
X047680Y028349D03*
X047680Y026971D03*
X047680Y023349D03*
X047680Y021971D03*
X047680Y018349D03*
X047680Y016971D03*
X047680Y013349D03*
X047680Y011971D03*
X047680Y008349D03*
X047680Y006971D03*
X047680Y003349D03*
X047680Y001971D03*
X047680Y046971D03*
X047680Y048349D03*
D17*
X013904Y044210D03*
X011936Y044210D03*
D18*
X008330Y033981D03*
X008330Y032879D03*
D19*
X009180Y033324D03*
X009180Y033836D03*
X007160Y031526D03*
X007160Y031014D03*
X005670Y030156D03*
X005670Y029644D03*
X005680Y032854D03*
X005680Y033366D03*
X012680Y036174D03*
X012680Y036686D03*
X010530Y044174D03*
X010530Y044686D03*
X009980Y044686D03*
X009980Y044174D03*
X007380Y044174D03*
X007380Y044686D03*
D20*
X035129Y045680D03*
X036231Y045680D03*
X042629Y045680D03*
X043731Y045680D03*
X043731Y035680D03*
X042629Y035680D03*
X036231Y035680D03*
X035129Y035680D03*
X035129Y025680D03*
X036231Y025680D03*
X042629Y025680D03*
X043731Y025680D03*
X043731Y015680D03*
X042629Y015680D03*
X036231Y015680D03*
X035129Y015680D03*
X035129Y005680D03*
X036231Y005680D03*
X042629Y005680D03*
X043731Y005680D03*
X020231Y004680D03*
X019129Y004680D03*
X012731Y004680D03*
X011629Y004680D03*
X011629Y014680D03*
X012731Y014680D03*
X019129Y014680D03*
X020231Y014680D03*
D21*
X002065Y032020D03*
X001395Y032020D03*
X001405Y033010D03*
X002075Y033010D03*
X011180Y046095D03*
X011180Y046765D03*
X011180Y047595D03*
X011180Y048265D03*
X012430Y046765D03*
X012430Y046095D03*
X015680Y046345D03*
X015680Y047015D03*
X018430Y047015D03*
X018430Y046345D03*
X023940Y046175D03*
X023940Y046845D03*
X019950Y038575D03*
X019950Y037905D03*
X020080Y035245D03*
X020080Y034575D03*
D22*
X021880Y045150D02*
X022480Y045150D01*
X022480Y046150D02*
X021880Y046150D01*
X021880Y047150D02*
X022480Y047150D01*
X022480Y048150D02*
X021880Y048150D01*
X021880Y049150D02*
X022480Y049150D01*
X017480Y048680D02*
X016880Y048680D01*
X016880Y047680D02*
X017480Y047680D01*
X017480Y046680D02*
X016880Y046680D01*
X016880Y045680D02*
X017480Y045680D01*
D23*
X023980Y048470D02*
X023980Y049030D01*
X024980Y049030D02*
X024980Y048470D01*
D24*
X025040Y046835D03*
X025040Y046165D03*
X023935Y045110D03*
X023265Y045110D03*
X020625Y039290D03*
X019955Y039290D03*
X020075Y036000D03*
X020745Y036000D03*
X020905Y030860D03*
X020235Y030860D03*
X020225Y029530D03*
X020895Y029530D03*
D25*
X014219Y047143D03*
X014219Y047339D03*
X014219Y047536D03*
X014219Y047733D03*
X013137Y047733D03*
X013137Y047536D03*
X013137Y047339D03*
X013137Y047143D03*
D26*
X012680Y035680D03*
D27*
X013630Y034930D03*
X014430Y034280D03*
X015030Y034280D03*
X015930Y034230D03*
X016530Y034230D03*
X016530Y036180D03*
X015930Y036180D03*
X015030Y036180D03*
X014430Y036180D03*
X014430Y037580D03*
X015330Y037680D03*
X015930Y037980D03*
X016380Y038280D03*
X017080Y038280D03*
X017730Y038280D03*
X018180Y038980D03*
X018580Y039380D03*
X020620Y039730D03*
X020740Y036440D03*
X019330Y035180D03*
X018530Y036430D03*
X017880Y036430D03*
X015530Y039930D03*
X015580Y040430D03*
X017180Y044230D03*
X019780Y044330D03*
X020280Y044330D03*
X020280Y042830D03*
X019730Y042830D03*
X025030Y045490D03*
X029230Y037280D03*
X029330Y034630D03*
X029380Y033180D03*
X020900Y031300D03*
X019980Y028980D03*
X020430Y028380D03*
X017330Y027680D03*
X017330Y027030D03*
X017330Y026330D03*
X017330Y025630D03*
X017280Y024930D03*
X017280Y024230D03*
X017280Y023580D03*
X017280Y021730D03*
X017280Y021130D03*
X013630Y020630D03*
X012780Y020580D03*
X008580Y021030D03*
X008080Y021030D03*
X007530Y021030D03*
X006980Y021030D03*
X008130Y027130D03*
X008130Y027830D03*
X009130Y028680D03*
X009780Y028680D03*
X011130Y029080D03*
X008680Y030280D03*
X008130Y030280D03*
X007880Y030990D03*
X008130Y031630D03*
X008680Y031630D03*
X009180Y032680D03*
X007480Y034630D03*
X006880Y034880D03*
X006330Y035180D03*
X005830Y035580D03*
X005780Y036320D03*
X003960Y038680D03*
X003200Y039190D03*
X002730Y039210D03*
X002690Y039970D03*
X001930Y040770D03*
X004940Y038800D03*
X008530Y037430D03*
X008930Y037430D03*
X009380Y037430D03*
X009830Y037430D03*
X009330Y038330D03*
X008830Y037980D03*
X010530Y039680D03*
X010150Y043050D03*
X009980Y045280D03*
X010530Y045280D03*
X008180Y046730D03*
X007380Y045280D03*
X006980Y044690D03*
X007530Y043030D03*
X004895Y043810D03*
X004780Y033830D03*
X004770Y032930D03*
X003950Y032910D03*
X002640Y033010D03*
X002640Y032020D03*
X004510Y031610D03*
X004480Y031200D03*
X004960Y031210D03*
X004970Y031610D03*
X004000Y030010D03*
X005130Y027830D03*
X005130Y027130D03*
X006290Y033200D03*
X006620Y033400D03*
X013230Y032630D03*
X025780Y022480D03*
X028780Y023780D03*
X027380Y018330D03*
X028080Y017630D03*
X027080Y017130D03*
X026680Y017130D03*
X026230Y017130D03*
X025830Y017130D03*
X018130Y016830D03*
X017430Y016830D03*
X006830Y010980D03*
X006830Y010380D03*
D28*
X017130Y003430D03*
X018280Y001630D03*
D29*
X005680Y009680D03*
X005680Y019680D03*
X005680Y023830D03*
X049180Y019680D03*
X049180Y009680D03*
X049180Y000680D03*
X049180Y030180D03*
X049180Y040180D03*
D30*
X002630Y002430D03*
X027630Y001630D03*
X047930Y005030D03*
X048030Y045130D03*
X003080Y047580D03*
M02*
