G75*
G70*
%OFA0B0*%
%FSLAX24Y24*%
%IPPOS*%
%LPD*%
%AMOC8*
5,1,8,0,0,1.08239X$1,22.5*
%
%ADD10C,0.0060*%
%ADD11C,0.0070*%
%ADD12C,0.0050*%
%ADD13C,0.0080*%
%ADD14R,0.0610X0.7874*%
%ADD15R,0.1526X0.0394*%
%ADD16C,0.0040*%
%ADD17C,0.0160*%
%ADD18C,0.0010*%
%ADD19C,0.0100*%
%ADD20R,0.0180X0.0300*%
%ADD21C,0.0031*%
D10*
X024260Y022480D02*
X024687Y022480D01*
X024474Y022694D02*
X024474Y022267D01*
X024959Y022330D02*
X024959Y022010D01*
X025600Y022010D01*
X025600Y022330D01*
X025493Y022437D01*
X025386Y022437D01*
X025280Y022330D01*
X025280Y022010D01*
X025280Y022330D02*
X025173Y022437D01*
X025066Y022437D01*
X024959Y022330D01*
X025173Y022655D02*
X024959Y022868D01*
X025173Y023082D01*
X025600Y023082D01*
X025280Y023082D02*
X025280Y022655D01*
X025173Y022655D02*
X025600Y022655D01*
X025600Y023513D02*
X024959Y023513D01*
X024959Y023726D02*
X024959Y023299D01*
X025173Y023944D02*
X024959Y024157D01*
X025600Y024157D01*
X025600Y023944D02*
X025600Y024371D01*
X025650Y025610D02*
X025009Y025610D01*
X025009Y025930D01*
X025116Y026037D01*
X025223Y026037D01*
X025330Y025930D01*
X025330Y025610D01*
X025650Y025610D02*
X025650Y025930D01*
X025543Y026037D01*
X025436Y026037D01*
X025330Y025930D01*
X025330Y026255D02*
X025330Y026682D01*
X025223Y026682D02*
X025650Y026682D01*
X025223Y026682D02*
X025009Y026468D01*
X025223Y026255D01*
X025650Y026255D01*
X025650Y027113D02*
X025009Y027113D01*
X025009Y027326D02*
X025009Y026899D01*
X025223Y027544D02*
X025009Y027757D01*
X025650Y027757D01*
X025650Y027544D02*
X025650Y027971D01*
X025700Y029110D02*
X025059Y029110D01*
X025059Y029430D01*
X025166Y029537D01*
X025273Y029537D01*
X025380Y029430D01*
X025380Y029110D01*
X025700Y029110D02*
X025700Y029430D01*
X025593Y029537D01*
X025486Y029537D01*
X025380Y029430D01*
X025380Y029755D02*
X025380Y030182D01*
X025273Y030182D02*
X025700Y030182D01*
X025273Y030182D02*
X025059Y029968D01*
X025273Y029755D01*
X025700Y029755D01*
X025700Y030613D02*
X025059Y030613D01*
X025059Y030826D02*
X025059Y030399D01*
X025273Y031044D02*
X025059Y031257D01*
X025700Y031257D01*
X025700Y031044D02*
X025700Y031471D01*
X024474Y029444D02*
X024474Y029017D01*
X024260Y029230D02*
X024687Y029230D01*
X024524Y026194D02*
X024524Y025767D01*
X024310Y025980D02*
X024737Y025980D01*
X024959Y033760D02*
X024959Y034187D01*
X024959Y033974D02*
X025600Y033974D01*
X025600Y034405D02*
X024959Y034405D01*
X024959Y034725D01*
X025066Y034832D01*
X025280Y034832D01*
X025386Y034725D01*
X025386Y034405D01*
X025386Y034618D02*
X025600Y034832D01*
X025600Y035049D02*
X025173Y035049D01*
X024959Y035263D01*
X025173Y035476D01*
X025600Y035476D01*
X025600Y035694D02*
X024959Y035694D01*
X025600Y036121D01*
X024959Y036121D01*
X025066Y036338D02*
X025173Y036338D01*
X025280Y036445D01*
X025280Y036658D01*
X025386Y036765D01*
X025493Y036765D01*
X025600Y036658D01*
X025600Y036445D01*
X025493Y036338D01*
X025066Y036338D02*
X024959Y036445D01*
X024959Y036658D01*
X025066Y036765D01*
X025009Y037610D02*
X025009Y037930D01*
X025116Y038037D01*
X025223Y038037D01*
X025330Y037930D01*
X025330Y037610D01*
X025650Y037610D02*
X025650Y037930D01*
X025543Y038037D01*
X025436Y038037D01*
X025330Y037930D01*
X025330Y038255D02*
X025330Y038682D01*
X025223Y038682D02*
X025650Y038682D01*
X025223Y038682D02*
X025009Y038468D01*
X025223Y038255D01*
X025650Y038255D01*
X025650Y037610D02*
X025009Y037610D01*
X024687Y037980D02*
X024260Y037980D01*
X024474Y037767D02*
X024474Y038194D01*
X025009Y038899D02*
X025009Y039326D01*
X025009Y039113D02*
X025650Y039113D01*
X025650Y039544D02*
X025223Y039971D01*
X025116Y039971D01*
X025009Y039864D01*
X025009Y039650D01*
X025116Y039544D01*
X025650Y039544D02*
X025650Y039971D01*
X024524Y041217D02*
X024524Y041644D01*
X024737Y041430D02*
X024310Y041430D01*
X025109Y041510D02*
X025536Y041510D01*
X025750Y041724D01*
X025536Y041937D01*
X025109Y041937D01*
X025216Y042155D02*
X025109Y042261D01*
X025109Y042475D01*
X025216Y042582D01*
X025323Y042582D01*
X025430Y042475D01*
X025536Y042582D01*
X025643Y042582D01*
X025750Y042475D01*
X025750Y042261D01*
X025643Y042155D01*
X025430Y042368D02*
X025430Y042475D01*
X025643Y042799D02*
X025643Y042906D01*
X025750Y042906D01*
X025750Y042799D01*
X025643Y042799D01*
X025643Y043121D02*
X025750Y043228D01*
X025750Y043442D01*
X025643Y043548D01*
X025536Y043548D01*
X025430Y043442D01*
X025430Y043335D01*
X025430Y043442D02*
X025323Y043548D01*
X025216Y043548D01*
X025109Y043442D01*
X025109Y043228D01*
X025216Y043121D01*
X022680Y044900D02*
X022680Y045400D01*
X022430Y045650D01*
X022680Y045900D01*
X022680Y046400D01*
X022430Y046650D01*
X022680Y046900D01*
X022680Y047400D01*
X022430Y047650D01*
X022680Y047900D01*
X022680Y048400D01*
X022430Y048650D01*
X022680Y048900D01*
X022680Y049400D01*
X022430Y049650D01*
X021930Y049650D01*
X021680Y049400D01*
X021680Y048900D01*
X021930Y048650D01*
X021680Y048400D01*
X021680Y047900D01*
X021930Y047650D01*
X021680Y047400D01*
X021680Y046900D01*
X021930Y046650D01*
X021680Y046400D01*
X021680Y045900D01*
X021930Y045650D01*
X021680Y045400D01*
X021680Y044900D01*
X021930Y044650D01*
X022430Y044650D01*
X022680Y044900D01*
X023580Y048250D02*
X024380Y048250D01*
X024480Y048350D01*
X024580Y048250D01*
X025380Y048250D01*
X025480Y048350D01*
X025480Y049150D01*
X025380Y049250D01*
X024580Y049250D01*
X024480Y049150D01*
X024380Y049250D01*
X023580Y049250D01*
X023480Y049150D01*
X023480Y048350D01*
X023580Y048250D01*
X020911Y049217D02*
X020805Y049110D01*
X020591Y049110D01*
X020484Y049217D01*
X020484Y049644D01*
X020591Y049751D01*
X020805Y049751D01*
X020911Y049644D01*
X020268Y049751D02*
X020055Y049751D01*
X020161Y049751D02*
X020161Y049110D01*
X020055Y049110D02*
X020268Y049110D01*
X019837Y049430D02*
X019730Y049324D01*
X019410Y049324D01*
X019410Y049110D02*
X019410Y049751D01*
X019730Y049751D01*
X019837Y049644D01*
X019837Y049430D01*
X017680Y048930D02*
X017680Y048430D01*
X017430Y048180D01*
X017680Y047930D01*
X017680Y047430D01*
X017430Y047180D01*
X017680Y046930D01*
X017680Y046430D01*
X017430Y046180D01*
X017680Y045930D01*
X017680Y045430D01*
X017430Y045180D01*
X016930Y045180D01*
X016680Y045430D01*
X016680Y045930D01*
X016930Y046180D01*
X016680Y046430D01*
X016680Y046930D01*
X016930Y047180D01*
X016680Y047430D01*
X016680Y047930D01*
X016930Y048180D01*
X016680Y048430D01*
X016680Y048930D01*
X016930Y049180D01*
X017430Y049180D01*
X017680Y048930D01*
X016232Y049167D02*
X016125Y049060D01*
X015805Y049060D01*
X015805Y049701D01*
X016125Y049701D01*
X016232Y049594D01*
X016232Y049487D01*
X016125Y049380D01*
X015805Y049380D01*
X015587Y049274D02*
X015587Y049167D01*
X015480Y049060D01*
X015160Y049060D01*
X015160Y049701D01*
X015480Y049701D01*
X015587Y049594D01*
X015587Y049487D01*
X015480Y049380D01*
X015160Y049380D01*
X015480Y049380D02*
X015587Y049274D01*
X016125Y049380D02*
X016232Y049274D01*
X016232Y049167D01*
X011636Y041886D02*
X011636Y036769D01*
X011341Y036474D01*
X006224Y036474D01*
X006224Y041886D01*
X011636Y041886D01*
X010308Y037408D02*
X010310Y037447D01*
X010316Y037486D01*
X010326Y037524D01*
X010339Y037561D01*
X010356Y037596D01*
X010376Y037630D01*
X010400Y037661D01*
X010427Y037690D01*
X010456Y037716D01*
X010488Y037739D01*
X010522Y037759D01*
X010558Y037775D01*
X010595Y037787D01*
X010634Y037796D01*
X010673Y037801D01*
X010712Y037802D01*
X010751Y037799D01*
X010790Y037792D01*
X010827Y037781D01*
X010864Y037767D01*
X010899Y037749D01*
X010932Y037728D01*
X010963Y037703D01*
X010991Y037676D01*
X011016Y037646D01*
X011038Y037613D01*
X011057Y037579D01*
X011072Y037543D01*
X011084Y037505D01*
X011092Y037467D01*
X011096Y037428D01*
X011096Y037388D01*
X011092Y037349D01*
X011084Y037311D01*
X011072Y037273D01*
X011057Y037237D01*
X011038Y037203D01*
X011016Y037170D01*
X010991Y037140D01*
X010963Y037113D01*
X010932Y037088D01*
X010899Y037067D01*
X010864Y037049D01*
X010827Y037035D01*
X010790Y037024D01*
X010751Y037017D01*
X010712Y037014D01*
X010673Y037015D01*
X010634Y037020D01*
X010595Y037029D01*
X010558Y037041D01*
X010522Y037057D01*
X010488Y037077D01*
X010456Y037100D01*
X010427Y037126D01*
X010400Y037155D01*
X010376Y037186D01*
X010356Y037220D01*
X010339Y037255D01*
X010326Y037292D01*
X010316Y037330D01*
X010310Y037369D01*
X010308Y037408D01*
X024310Y034380D02*
X024737Y034380D01*
X024524Y034594D02*
X024524Y034167D01*
X025280Y035049D02*
X025280Y035476D01*
D11*
X005345Y036270D02*
X005240Y036165D01*
X004820Y036165D01*
X004714Y036270D01*
X004714Y036480D01*
X004820Y036585D01*
X004714Y036810D02*
X004714Y037125D01*
X004820Y037230D01*
X005030Y037230D01*
X005135Y037125D01*
X005135Y036810D01*
X005345Y036810D02*
X004714Y036810D01*
X005240Y036585D02*
X005345Y036480D01*
X005345Y036270D01*
X005240Y037454D02*
X004714Y037454D01*
X004714Y037874D02*
X005240Y037874D01*
X005345Y037769D01*
X005345Y037559D01*
X005240Y037454D01*
X005345Y038099D02*
X005345Y038519D01*
X005345Y038309D02*
X004714Y038309D01*
X004925Y038099D01*
D12*
X007930Y033580D02*
X008730Y033580D01*
X005587Y032217D02*
X005469Y032217D01*
X005587Y032217D02*
X005587Y032099D01*
X005587Y030681D02*
X005587Y030563D01*
X005469Y030563D01*
X004034Y030689D02*
X004036Y030699D01*
X004041Y030707D01*
X004049Y030712D01*
X004059Y030714D01*
X004069Y030712D01*
X004077Y030707D01*
X004082Y030699D01*
X004084Y030689D01*
X004082Y030679D01*
X004077Y030671D01*
X004069Y030666D01*
X004059Y030664D01*
X004049Y030666D01*
X004041Y030671D01*
X004036Y030679D01*
X004034Y030689D01*
X003933Y030681D02*
X004051Y030563D01*
X003933Y032099D02*
X003933Y032217D01*
X004051Y032217D01*
X011345Y044210D02*
X011347Y044258D01*
X011353Y044306D01*
X011363Y044353D01*
X011376Y044399D01*
X011394Y044444D01*
X011414Y044488D01*
X011439Y044530D01*
X011467Y044569D01*
X011497Y044606D01*
X011531Y044640D01*
X011568Y044672D01*
X011606Y044701D01*
X011647Y044726D01*
X011690Y044748D01*
X011735Y044766D01*
X011781Y044780D01*
X011828Y044791D01*
X011876Y044798D01*
X011924Y044801D01*
X011972Y044800D01*
X012020Y044795D01*
X012068Y044786D01*
X012114Y044774D01*
X012159Y044757D01*
X012203Y044737D01*
X012245Y044714D01*
X012285Y044687D01*
X012323Y044657D01*
X012358Y044624D01*
X012390Y044588D01*
X012420Y044550D01*
X012446Y044509D01*
X012468Y044466D01*
X012488Y044422D01*
X012503Y044377D01*
X012515Y044330D01*
X012523Y044282D01*
X012527Y044234D01*
X012527Y044186D01*
X012523Y044138D01*
X012515Y044090D01*
X012503Y044043D01*
X012488Y043998D01*
X012468Y043954D01*
X012446Y043911D01*
X012420Y043870D01*
X012390Y043832D01*
X012358Y043796D01*
X012323Y043763D01*
X012285Y043733D01*
X012245Y043706D01*
X012203Y043683D01*
X012159Y043663D01*
X012114Y043646D01*
X012068Y043634D01*
X012020Y043625D01*
X011972Y043620D01*
X011924Y043619D01*
X011876Y043622D01*
X011828Y043629D01*
X011781Y043640D01*
X011735Y043654D01*
X011690Y043672D01*
X011647Y043694D01*
X011606Y043719D01*
X011568Y043748D01*
X011531Y043780D01*
X011497Y043814D01*
X011467Y043851D01*
X011439Y043890D01*
X011414Y043932D01*
X011394Y043976D01*
X011376Y044021D01*
X011363Y044067D01*
X011353Y044114D01*
X011347Y044162D01*
X011345Y044210D01*
X011149Y044210D02*
X011151Y044266D01*
X011157Y044321D01*
X011167Y044375D01*
X011180Y044429D01*
X011198Y044482D01*
X011219Y044533D01*
X011243Y044583D01*
X011271Y044631D01*
X011303Y044677D01*
X011337Y044721D01*
X011375Y044762D01*
X011415Y044800D01*
X011458Y044835D01*
X011503Y044867D01*
X011551Y044896D01*
X011600Y044922D01*
X011651Y044944D01*
X011703Y044962D01*
X011757Y044976D01*
X011812Y044987D01*
X011867Y044994D01*
X011922Y044997D01*
X011978Y044996D01*
X012033Y044991D01*
X012088Y044982D01*
X012142Y044970D01*
X012195Y044953D01*
X012247Y044933D01*
X012297Y044909D01*
X012345Y044882D01*
X012392Y044852D01*
X012436Y044818D01*
X012478Y044781D01*
X012516Y044741D01*
X012553Y044699D01*
X012586Y044654D01*
X012615Y044608D01*
X012642Y044559D01*
X012664Y044508D01*
X012684Y044456D01*
X012699Y044402D01*
X012711Y044348D01*
X012719Y044293D01*
X012723Y044238D01*
X012723Y044182D01*
X012719Y044127D01*
X012711Y044072D01*
X012699Y044018D01*
X012684Y043964D01*
X012664Y043912D01*
X012642Y043861D01*
X012615Y043812D01*
X012586Y043766D01*
X012553Y043721D01*
X012516Y043679D01*
X012478Y043639D01*
X012436Y043602D01*
X012392Y043568D01*
X012345Y043538D01*
X012297Y043511D01*
X012247Y043487D01*
X012195Y043467D01*
X012142Y043450D01*
X012088Y043438D01*
X012033Y043429D01*
X011978Y043424D01*
X011922Y043423D01*
X011867Y043426D01*
X011812Y043433D01*
X011757Y043444D01*
X011703Y043458D01*
X011651Y043476D01*
X011600Y043498D01*
X011551Y043524D01*
X011503Y043553D01*
X011458Y043585D01*
X011415Y043620D01*
X011375Y043658D01*
X011337Y043699D01*
X011303Y043743D01*
X011271Y043789D01*
X011243Y043837D01*
X011219Y043887D01*
X011198Y043938D01*
X011180Y043991D01*
X011167Y044045D01*
X011157Y044099D01*
X011151Y044154D01*
X011149Y044210D01*
X016955Y044870D02*
X017180Y044645D01*
X017180Y044945D01*
X017405Y044870D02*
X016955Y044870D01*
X017930Y047824D02*
X018005Y047824D01*
X018080Y047899D01*
X018080Y048049D01*
X018155Y048124D01*
X018230Y048124D01*
X018305Y048049D01*
X018305Y047899D01*
X018230Y047824D01*
X017930Y047824D02*
X017855Y047899D01*
X017855Y048049D01*
X017930Y048124D01*
X017855Y048284D02*
X018155Y048284D01*
X018305Y048434D01*
X018155Y048584D01*
X017855Y048584D01*
X018005Y048745D02*
X017855Y048895D01*
X018305Y048895D01*
X018305Y048745D02*
X018305Y049045D01*
X017405Y049195D02*
X017405Y049495D01*
X017405Y049345D02*
X016955Y049345D01*
X017105Y049195D01*
X021055Y049225D02*
X021055Y048925D01*
X021280Y048925D01*
X021205Y049075D01*
X021205Y049150D01*
X021280Y049225D01*
X021430Y049225D01*
X021505Y049150D01*
X021505Y049000D01*
X021430Y048925D01*
X024124Y047700D02*
X024199Y047625D01*
X024274Y047625D01*
X024349Y047700D01*
X024349Y048075D01*
X024274Y048075D02*
X024424Y048075D01*
X024584Y048075D02*
X024809Y048075D01*
X024884Y048000D01*
X024884Y047850D01*
X024809Y047775D01*
X024584Y047775D01*
X024584Y047625D02*
X024584Y048075D01*
X025045Y048000D02*
X025120Y048075D01*
X025270Y048075D01*
X025345Y048000D01*
X025345Y047925D01*
X025045Y047625D01*
X025345Y047625D01*
X023305Y045225D02*
X023305Y044925D01*
X023305Y045075D02*
X022855Y045075D01*
X023005Y044925D01*
X023546Y043597D02*
X021341Y043597D01*
X021341Y040841D01*
X023546Y040841D01*
X023546Y043597D01*
X024097Y043597D01*
X024097Y040841D01*
X023546Y040841D01*
X023546Y040097D02*
X023546Y037341D01*
X024097Y037341D01*
X024097Y040097D01*
X023546Y040097D01*
X021341Y040097D01*
X021341Y037341D01*
X023546Y037341D01*
X023546Y036597D02*
X023546Y033841D01*
X024097Y033841D01*
X024097Y036597D01*
X023546Y036597D01*
X021341Y036597D01*
X021341Y033841D01*
X023546Y033841D01*
X023546Y031597D02*
X021341Y031597D01*
X021341Y028841D01*
X023546Y028841D01*
X023546Y031597D01*
X024097Y031597D01*
X024097Y028841D01*
X023546Y028841D01*
X023546Y028097D02*
X023546Y025341D01*
X024097Y025341D01*
X024097Y028097D01*
X023546Y028097D01*
X021341Y028097D01*
X021341Y025341D01*
X023546Y025341D01*
X023546Y024597D02*
X023546Y021841D01*
X024097Y021841D01*
X024097Y024597D01*
X023546Y024597D01*
X021341Y024597D01*
X021341Y021841D01*
X023546Y021841D01*
X025510Y019840D02*
X020510Y019840D01*
X020510Y019540D01*
X025210Y019540D01*
X025210Y010740D01*
X020510Y010740D01*
X020510Y010440D01*
X025510Y010440D01*
X025510Y019840D01*
X029870Y019880D02*
X034870Y019880D01*
X034870Y019580D01*
X030170Y019580D01*
X030170Y010780D01*
X034870Y010780D01*
X034870Y010480D01*
X029870Y010480D01*
X029870Y019880D01*
X029850Y020480D02*
X034850Y020480D01*
X034850Y020780D01*
X030150Y020780D01*
X030150Y029580D01*
X034850Y029580D01*
X034850Y029880D01*
X029850Y029880D01*
X029850Y020480D01*
X037340Y020480D02*
X042340Y020480D01*
X042340Y020780D01*
X037640Y020780D01*
X037640Y029580D01*
X042340Y029580D01*
X042340Y029880D01*
X037340Y029880D01*
X037340Y020480D01*
X037360Y019880D02*
X042360Y019880D01*
X042360Y019580D01*
X037660Y019580D01*
X037660Y010780D01*
X042360Y010780D01*
X042360Y010480D01*
X037360Y010480D01*
X037360Y019880D01*
X046263Y019019D02*
X046263Y016263D01*
X046814Y016263D01*
X046814Y019019D01*
X046263Y019019D01*
X046814Y019019D02*
X049019Y019019D01*
X049019Y016263D01*
X046814Y016263D01*
X046814Y014019D02*
X046263Y014019D01*
X046263Y011263D01*
X046814Y011263D01*
X046814Y014019D01*
X049019Y014019D01*
X049019Y011263D01*
X046814Y011263D01*
X046814Y009019D02*
X046263Y009019D01*
X046263Y006263D01*
X046814Y006263D01*
X046814Y009019D01*
X049019Y009019D01*
X049019Y006263D01*
X046814Y006263D01*
X046814Y004019D02*
X046263Y004019D01*
X046263Y001263D01*
X046814Y001263D01*
X046814Y004019D01*
X049019Y004019D01*
X049019Y001263D01*
X046814Y001263D01*
X042350Y000780D02*
X042350Y000480D01*
X037350Y000480D01*
X037350Y009880D01*
X042350Y009880D01*
X042350Y009580D01*
X037650Y009580D01*
X037650Y000780D01*
X042350Y000780D01*
X034860Y000780D02*
X034860Y000480D01*
X029860Y000480D01*
X029860Y009880D01*
X034860Y009880D01*
X034860Y009580D01*
X030160Y009580D01*
X030160Y000780D01*
X034860Y000780D01*
X025530Y000480D02*
X020530Y000480D01*
X020530Y000780D01*
X025230Y000780D01*
X025230Y009580D01*
X020530Y009580D01*
X020530Y009880D01*
X025530Y009880D01*
X025530Y000480D01*
X018070Y000500D02*
X013070Y000500D01*
X013070Y000800D01*
X017770Y000800D01*
X017770Y009600D01*
X013070Y009600D01*
X013070Y009900D01*
X018070Y009900D01*
X018070Y000500D01*
X009097Y001341D02*
X009097Y004097D01*
X008546Y004097D01*
X008546Y001341D01*
X009097Y001341D01*
X008546Y001341D02*
X006341Y001341D01*
X006341Y004097D01*
X008546Y004097D01*
X008546Y006341D02*
X006341Y006341D01*
X006341Y009097D01*
X008546Y009097D01*
X008546Y006341D01*
X009097Y006341D01*
X009097Y009097D01*
X008546Y009097D01*
X008546Y011341D02*
X006341Y011341D01*
X006341Y014097D01*
X008546Y014097D01*
X008546Y011341D01*
X009097Y011341D01*
X009097Y014097D01*
X008546Y014097D01*
X008546Y016341D02*
X006341Y016341D01*
X006341Y019097D01*
X008546Y019097D01*
X008546Y016341D01*
X009097Y016341D01*
X009097Y019097D01*
X008546Y019097D01*
X013030Y019590D02*
X013030Y019890D01*
X018030Y019890D01*
X018030Y010490D01*
X013030Y010490D01*
X013030Y010790D01*
X017730Y010790D01*
X017730Y019590D01*
X013030Y019590D01*
X029860Y030480D02*
X034860Y030480D01*
X034860Y030780D01*
X030160Y030780D01*
X030160Y039580D01*
X034860Y039580D01*
X034860Y039880D01*
X029860Y039880D01*
X029860Y030480D01*
X037340Y030480D02*
X042340Y030480D01*
X042340Y030780D01*
X037640Y030780D01*
X037640Y039580D01*
X042340Y039580D01*
X042340Y039880D01*
X037340Y039880D01*
X037340Y030480D01*
X046263Y031263D02*
X046814Y031263D01*
X046814Y034019D01*
X046263Y034019D01*
X046263Y031263D01*
X046814Y031263D02*
X049019Y031263D01*
X049019Y034019D01*
X046814Y034019D01*
X046814Y036263D02*
X046263Y036263D01*
X046263Y039019D01*
X046814Y039019D01*
X046814Y036263D01*
X049019Y036263D01*
X049019Y039019D01*
X046814Y039019D01*
X046814Y041263D02*
X046263Y041263D01*
X046263Y044019D01*
X046814Y044019D01*
X046814Y041263D01*
X049019Y041263D01*
X049019Y044019D01*
X046814Y044019D01*
X046814Y046263D02*
X046263Y046263D01*
X046263Y049019D01*
X046814Y049019D01*
X046814Y046263D01*
X049019Y046263D01*
X049019Y049019D01*
X046814Y049019D01*
X042410Y049570D02*
X042410Y049870D01*
X037410Y049870D01*
X037410Y040470D01*
X042410Y040470D01*
X042410Y040770D01*
X037710Y040770D01*
X037710Y049570D01*
X042410Y049570D01*
X034850Y049580D02*
X034850Y049880D01*
X029850Y049880D01*
X029850Y040480D01*
X034850Y040480D01*
X034850Y040780D01*
X030150Y040780D01*
X030150Y049580D01*
X034850Y049580D01*
X021505Y045896D02*
X021505Y045596D01*
X021505Y045746D02*
X021055Y045746D01*
X021205Y045596D01*
X021280Y045436D02*
X021355Y045361D01*
X021355Y045135D01*
X021505Y045135D02*
X021055Y045135D01*
X021055Y045361D01*
X021130Y045436D01*
X021280Y045436D01*
X021055Y044975D02*
X021055Y044825D01*
X021055Y044900D02*
X021430Y044900D01*
X021505Y044825D01*
X021505Y044750D01*
X021430Y044675D01*
X046263Y029019D02*
X046263Y026263D01*
X046814Y026263D01*
X046814Y029019D01*
X046263Y029019D01*
X046814Y029019D02*
X049019Y029019D01*
X049019Y026263D01*
X046814Y026263D01*
X046814Y024019D02*
X046263Y024019D01*
X046263Y021263D01*
X046814Y021263D01*
X046814Y024019D01*
X049019Y024019D01*
X049019Y021263D01*
X046814Y021263D01*
D13*
X039412Y021282D02*
X039412Y021828D01*
X039412Y021282D02*
X038271Y021282D01*
X038271Y019078D02*
X039412Y019078D01*
X039412Y018532D01*
X039412Y011828D02*
X039412Y011282D01*
X038271Y011282D01*
X038271Y009078D02*
X039412Y009078D01*
X039412Y008532D01*
X039412Y001828D02*
X039412Y001282D01*
X038271Y001282D01*
X031912Y001282D02*
X031912Y001828D01*
X031912Y001282D02*
X030771Y001282D01*
X024589Y001282D02*
X023448Y001282D01*
X023448Y001828D01*
X017089Y001282D02*
X015948Y001282D01*
X015948Y001828D01*
X015948Y008532D02*
X015948Y009078D01*
X017089Y009078D01*
X017089Y011282D02*
X015948Y011282D01*
X015948Y011828D01*
X015948Y018532D02*
X015948Y019078D01*
X017089Y019078D01*
X023448Y019078D02*
X023448Y018532D01*
X023448Y019078D02*
X024589Y019078D01*
X030771Y019078D02*
X031912Y019078D01*
X031912Y018532D01*
X031912Y021282D02*
X030771Y021282D01*
X031912Y021282D02*
X031912Y021828D01*
X031912Y028532D02*
X031912Y029078D01*
X030771Y029078D01*
X030771Y031282D02*
X031912Y031282D01*
X031912Y031828D01*
X038271Y031282D02*
X039412Y031282D01*
X039412Y031828D01*
X039412Y029078D02*
X038271Y029078D01*
X039412Y029078D02*
X039412Y028532D01*
X039412Y038532D02*
X039412Y039078D01*
X038271Y039078D01*
X038271Y041282D02*
X039412Y041282D01*
X039412Y041828D01*
X039412Y048532D02*
X039412Y049078D01*
X038271Y049078D01*
X031912Y049078D02*
X031912Y048532D01*
X031912Y049078D02*
X030771Y049078D01*
X031912Y041828D02*
X031912Y041282D01*
X030771Y041282D01*
X030771Y039078D02*
X031912Y039078D01*
X031912Y038532D01*
X008802Y034257D02*
X008802Y033824D01*
X008802Y034257D02*
X008645Y034414D01*
X008015Y034414D01*
X007858Y034257D01*
X007858Y033824D01*
X007858Y033036D02*
X007858Y032446D01*
X008802Y032446D01*
X008802Y033036D01*
X023448Y011828D02*
X023448Y011282D01*
X024589Y011282D01*
X024589Y009078D02*
X023448Y009078D01*
X023448Y008532D01*
X030771Y009078D02*
X031912Y009078D01*
X031912Y008532D01*
X031912Y011282D02*
X030771Y011282D01*
X031912Y011282D02*
X031912Y011828D01*
D14*
X030485Y015180D03*
X024875Y015180D03*
X017375Y015180D03*
X017375Y005180D03*
X024875Y005180D03*
X030485Y005180D03*
X037985Y005180D03*
X037985Y015180D03*
X037985Y025180D03*
X030485Y025180D03*
X030485Y035180D03*
X037985Y035180D03*
X037985Y045180D03*
X030485Y045180D03*
D15*
X032636Y044511D03*
X032636Y045849D03*
X032636Y047188D03*
X032636Y048526D03*
X032636Y043172D03*
X032636Y041834D03*
X032636Y038526D03*
X032636Y037188D03*
X032636Y035849D03*
X032636Y034511D03*
X032636Y033172D03*
X032636Y031834D03*
X032636Y028526D03*
X032636Y027188D03*
X032636Y025849D03*
X032636Y024511D03*
X032636Y023172D03*
X032636Y021834D03*
X032636Y018526D03*
X032636Y017188D03*
X032636Y015849D03*
X032636Y014511D03*
X032636Y013172D03*
X032636Y011834D03*
X032636Y008526D03*
X032636Y007188D03*
X032636Y005849D03*
X032636Y004511D03*
X032636Y003172D03*
X032636Y001834D03*
X040136Y001834D03*
X040136Y003172D03*
X040136Y004511D03*
X040136Y005849D03*
X040136Y007188D03*
X040136Y008526D03*
X040136Y011834D03*
X040136Y013172D03*
X040136Y014511D03*
X040136Y015849D03*
X040136Y017188D03*
X040136Y018526D03*
X040136Y021834D03*
X040136Y023172D03*
X040136Y024511D03*
X040136Y025849D03*
X040136Y027188D03*
X040136Y028526D03*
X040136Y031834D03*
X040136Y033172D03*
X040136Y034511D03*
X040136Y035849D03*
X040136Y037188D03*
X040136Y038526D03*
X040136Y041834D03*
X040136Y043172D03*
X040136Y044511D03*
X040136Y045849D03*
X040136Y047188D03*
X040136Y048526D03*
X022724Y018526D03*
X022724Y017188D03*
X022724Y015849D03*
X022724Y014511D03*
X022724Y013172D03*
X022724Y011834D03*
X022724Y008526D03*
X022724Y007188D03*
X022724Y005849D03*
X022724Y004511D03*
X022724Y003172D03*
X022724Y001834D03*
X015224Y001834D03*
X015224Y003172D03*
X015224Y004511D03*
X015224Y005849D03*
X015224Y007188D03*
X015224Y008526D03*
X015224Y011834D03*
X015224Y013172D03*
X015224Y014511D03*
X015224Y015849D03*
X015224Y017188D03*
X015224Y018526D03*
D16*
X005731Y002807D02*
X005731Y002653D01*
X005731Y002730D02*
X006115Y002730D01*
X006191Y002653D01*
X006191Y002577D01*
X006115Y002500D01*
X006191Y002960D02*
X006191Y003267D01*
X006191Y003114D02*
X005731Y003114D01*
X005885Y002960D01*
X005961Y003421D02*
X005961Y003728D01*
X005731Y003651D02*
X005961Y003421D01*
X006191Y003651D02*
X005731Y003651D01*
X006115Y007500D02*
X006191Y007577D01*
X006191Y007653D01*
X006115Y007730D01*
X005731Y007730D01*
X005731Y007653D02*
X005731Y007807D01*
X005885Y007960D02*
X005731Y008114D01*
X006191Y008114D01*
X006191Y008267D02*
X006191Y007960D01*
X006191Y008421D02*
X006191Y008728D01*
X006191Y008574D02*
X005731Y008574D01*
X005885Y008421D01*
X006115Y012500D02*
X006191Y012577D01*
X006191Y012653D01*
X006115Y012730D01*
X005731Y012730D01*
X005731Y012653D02*
X005731Y012807D01*
X005885Y012960D02*
X005731Y013114D01*
X006191Y013114D01*
X006191Y013267D02*
X006191Y012960D01*
X006115Y013421D02*
X005808Y013421D01*
X005731Y013497D01*
X005731Y013651D01*
X005808Y013728D01*
X006115Y013421D01*
X006191Y013497D01*
X006191Y013651D01*
X006115Y013728D01*
X005808Y013728D01*
X006115Y017960D02*
X006191Y018037D01*
X006191Y018114D01*
X006115Y018191D01*
X005731Y018191D01*
X005731Y018267D02*
X005731Y018114D01*
X005808Y018421D02*
X005885Y018421D01*
X005961Y018497D01*
X005961Y018728D01*
X005808Y018728D02*
X005731Y018651D01*
X005731Y018497D01*
X005808Y018421D01*
X005808Y018728D02*
X006115Y018728D01*
X006191Y018651D01*
X006191Y018497D01*
X006115Y018421D01*
X013950Y019200D02*
X014103Y019200D01*
X014027Y019200D02*
X014027Y019660D01*
X014103Y019660D02*
X013950Y019660D01*
X014257Y019584D02*
X014257Y019277D01*
X014334Y019200D01*
X014487Y019200D01*
X014564Y019277D01*
X014717Y019200D02*
X015024Y019200D01*
X014871Y019200D02*
X014871Y019660D01*
X014717Y019507D01*
X014564Y019584D02*
X014487Y019660D01*
X014334Y019660D01*
X014257Y019584D01*
X015178Y019584D02*
X015254Y019660D01*
X015408Y019660D01*
X015485Y019584D01*
X015178Y019277D01*
X015254Y019200D01*
X015408Y019200D01*
X015485Y019277D01*
X015485Y019584D01*
X015178Y019584D02*
X015178Y019277D01*
X021450Y019200D02*
X021603Y019200D01*
X021527Y019200D02*
X021527Y019660D01*
X021603Y019660D02*
X021450Y019660D01*
X021757Y019584D02*
X021757Y019277D01*
X021834Y019200D01*
X021987Y019200D01*
X022064Y019277D01*
X022217Y019277D02*
X022294Y019200D01*
X022448Y019200D01*
X022524Y019277D01*
X022524Y019584D01*
X022448Y019660D01*
X022294Y019660D01*
X022217Y019584D01*
X022217Y019507D01*
X022294Y019430D01*
X022524Y019430D01*
X022064Y019584D02*
X021987Y019660D01*
X021834Y019660D01*
X021757Y019584D01*
X024765Y023150D02*
X024841Y023227D01*
X024841Y023303D01*
X024765Y023380D01*
X024381Y023380D01*
X024381Y023303D02*
X024381Y023457D01*
X024458Y023610D02*
X024381Y023687D01*
X024381Y023841D01*
X024458Y023917D01*
X024535Y023917D01*
X024841Y023610D01*
X024841Y023917D01*
X024765Y024071D02*
X024458Y024378D01*
X024765Y024378D01*
X024841Y024301D01*
X024841Y024147D01*
X024765Y024071D01*
X024458Y024071D01*
X024381Y024147D01*
X024381Y024301D01*
X024458Y024378D01*
X024765Y026650D02*
X024841Y026727D01*
X024841Y026803D01*
X024765Y026880D01*
X024381Y026880D01*
X024381Y026803D02*
X024381Y026957D01*
X024535Y027110D02*
X024381Y027264D01*
X024841Y027264D01*
X024841Y027417D02*
X024841Y027110D01*
X024841Y027571D02*
X024765Y027571D01*
X024458Y027878D01*
X024381Y027878D01*
X024381Y027571D01*
X024715Y030150D02*
X024791Y030227D01*
X024791Y030303D01*
X024715Y030380D01*
X024331Y030380D01*
X024331Y030303D02*
X024331Y030457D01*
X024485Y030610D02*
X024331Y030764D01*
X024791Y030764D01*
X024791Y030917D02*
X024791Y030610D01*
X024791Y031071D02*
X024485Y031378D01*
X024408Y031378D01*
X024331Y031301D01*
X024331Y031147D01*
X024408Y031071D01*
X024791Y031071D02*
X024791Y031378D01*
X024615Y035100D02*
X024691Y035177D01*
X024691Y035253D01*
X024615Y035330D01*
X024231Y035330D01*
X024231Y035253D02*
X024231Y035407D01*
X024385Y035560D02*
X024231Y035714D01*
X024691Y035714D01*
X024691Y035867D02*
X024691Y035560D01*
X024615Y036021D02*
X024691Y036097D01*
X024691Y036251D01*
X024615Y036328D01*
X024308Y036328D01*
X024231Y036251D01*
X024231Y036097D01*
X024308Y036021D01*
X024385Y036021D01*
X024461Y036097D01*
X024461Y036328D01*
X024665Y038650D02*
X024741Y038727D01*
X024741Y038803D01*
X024665Y038880D01*
X024281Y038880D01*
X024281Y038803D02*
X024281Y038957D01*
X024435Y039110D02*
X024281Y039264D01*
X024741Y039264D01*
X024741Y039417D02*
X024741Y039110D01*
X024665Y039571D02*
X024588Y039571D01*
X024511Y039647D01*
X024511Y039801D01*
X024588Y039878D01*
X024665Y039878D01*
X024741Y039801D01*
X024741Y039647D01*
X024665Y039571D01*
X024511Y039647D02*
X024435Y039571D01*
X024358Y039571D01*
X024281Y039647D01*
X024281Y039801D01*
X024358Y039878D01*
X024435Y039878D01*
X024511Y039801D01*
X024665Y042560D02*
X024741Y042637D01*
X024741Y042714D01*
X024665Y042791D01*
X024281Y042791D01*
X024281Y042867D02*
X024281Y042714D01*
X024435Y043021D02*
X024281Y043174D01*
X024741Y043174D01*
X024741Y043021D02*
X024741Y043328D01*
X025436Y045489D02*
X025743Y045489D01*
X025820Y045566D01*
X025820Y045719D01*
X025743Y045796D01*
X025743Y045949D02*
X025820Y046026D01*
X025820Y046179D01*
X025743Y046256D01*
X025590Y046256D01*
X025513Y046179D01*
X025513Y046103D01*
X025590Y045949D01*
X025360Y045949D01*
X025360Y046256D01*
X025360Y046410D02*
X025590Y046410D01*
X025513Y046563D01*
X025513Y046640D01*
X025590Y046717D01*
X025743Y046717D01*
X025820Y046640D01*
X025820Y046486D01*
X025743Y046410D01*
X025360Y046410D02*
X025360Y046717D01*
X025436Y045796D02*
X025360Y045719D01*
X025360Y045566D01*
X025436Y045489D01*
X024037Y045557D02*
X023961Y045480D01*
X023807Y045480D01*
X023730Y045557D01*
X023730Y045633D01*
X023807Y045710D01*
X023961Y045710D01*
X024037Y045633D01*
X024037Y045557D01*
X023961Y045710D02*
X024037Y045787D01*
X024037Y045864D01*
X023961Y045940D01*
X023807Y045940D01*
X023730Y045864D01*
X023730Y045787D01*
X023807Y045710D01*
X023577Y045710D02*
X023577Y045864D01*
X023500Y045940D01*
X023270Y045940D01*
X023270Y045480D01*
X023270Y045633D02*
X023500Y045633D01*
X023577Y045710D01*
X023423Y045633D02*
X023577Y045480D01*
X023570Y046180D02*
X023110Y046180D01*
X023110Y046410D01*
X023186Y046487D01*
X023340Y046487D01*
X023417Y046410D01*
X023417Y046180D01*
X023417Y046333D02*
X023570Y046487D01*
X023570Y046640D02*
X023493Y046640D01*
X023186Y046947D01*
X023110Y046947D01*
X023110Y046640D01*
X019260Y046666D02*
X019183Y046590D01*
X019260Y046666D02*
X019260Y046820D01*
X019183Y046897D01*
X019107Y046897D01*
X019030Y046820D01*
X019030Y046743D01*
X019030Y046820D02*
X018953Y046897D01*
X018876Y046897D01*
X018800Y046820D01*
X018800Y046666D01*
X018876Y046590D01*
X018800Y046283D02*
X019260Y046283D01*
X019260Y046436D02*
X019260Y046129D01*
X019260Y045976D02*
X019107Y045822D01*
X019107Y045899D02*
X019107Y045669D01*
X019260Y045669D02*
X018800Y045669D01*
X018800Y045899D01*
X018876Y045976D01*
X019030Y045976D01*
X019107Y045899D01*
X018953Y046129D02*
X018800Y046283D01*
X015410Y046229D02*
X015410Y046536D01*
X015410Y046383D02*
X014950Y046383D01*
X015103Y046229D01*
X015026Y046076D02*
X015180Y046076D01*
X015257Y045999D01*
X015257Y045769D01*
X015410Y045769D02*
X014950Y045769D01*
X014950Y045999D01*
X015026Y046076D01*
X015257Y045922D02*
X015410Y046076D01*
X015180Y046690D02*
X015180Y046997D01*
X015410Y046920D02*
X014950Y046920D01*
X015180Y046690D01*
X013260Y046570D02*
X013260Y046416D01*
X013183Y046340D01*
X013030Y046340D02*
X012953Y046493D01*
X012953Y046570D01*
X013030Y046647D01*
X013183Y046647D01*
X013260Y046570D01*
X013030Y046340D02*
X012800Y046340D01*
X012800Y046647D01*
X012800Y046033D02*
X013260Y046033D01*
X013260Y046186D02*
X013260Y045879D01*
X013260Y045726D02*
X013107Y045572D01*
X013107Y045649D02*
X013107Y045419D01*
X013260Y045419D02*
X012800Y045419D01*
X012800Y045649D01*
X012876Y045726D01*
X013030Y045726D01*
X013107Y045649D01*
X012953Y045879D02*
X012800Y046033D01*
X012010Y046033D02*
X011550Y046033D01*
X011703Y045879D01*
X011626Y045726D02*
X011550Y045649D01*
X011550Y045419D01*
X012010Y045419D01*
X011857Y045419D02*
X011857Y045649D01*
X011780Y045726D01*
X011626Y045726D01*
X011857Y045572D02*
X012010Y045726D01*
X012010Y045879D02*
X012010Y046186D01*
X012010Y046340D02*
X011703Y046647D01*
X011626Y046647D01*
X011550Y046570D01*
X011550Y046416D01*
X011626Y046340D01*
X012010Y046340D02*
X012010Y046647D01*
X010810Y047600D02*
X010350Y047600D01*
X010350Y047830D01*
X010426Y047907D01*
X010580Y047907D01*
X010657Y047830D01*
X010657Y047600D01*
X010657Y047753D02*
X010810Y047907D01*
X010810Y048060D02*
X010810Y048367D01*
X010810Y048214D02*
X010350Y048214D01*
X010503Y048060D01*
X010503Y048521D02*
X010350Y048674D01*
X010810Y048674D01*
X010810Y048521D02*
X010810Y048828D01*
X013573Y043490D02*
X013726Y043490D01*
X013649Y043490D02*
X013649Y043030D01*
X013573Y043030D02*
X013726Y043030D01*
X013880Y043030D02*
X014187Y043030D01*
X014033Y043030D02*
X014033Y043490D01*
X013880Y043337D01*
X019960Y040120D02*
X019960Y039660D01*
X019960Y039813D02*
X020190Y039813D01*
X020267Y039890D01*
X020267Y040044D01*
X020190Y040120D01*
X019960Y040120D01*
X020113Y039813D02*
X020267Y039660D01*
X020420Y039737D02*
X020497Y039660D01*
X020651Y039660D01*
X020727Y039737D01*
X020727Y039813D01*
X020651Y039890D01*
X020420Y039890D01*
X020420Y039737D01*
X020420Y039890D02*
X020574Y040044D01*
X020727Y040120D01*
X020703Y038457D02*
X020550Y038457D01*
X020473Y038380D01*
X020473Y038303D01*
X020550Y038150D01*
X020320Y038150D01*
X020320Y038457D01*
X020703Y038457D02*
X020780Y038380D01*
X020780Y038226D01*
X020703Y038150D01*
X020780Y037996D02*
X020627Y037843D01*
X020627Y037919D02*
X020627Y037689D01*
X020780Y037689D02*
X020320Y037689D01*
X020320Y037919D01*
X020396Y037996D01*
X020550Y037996D01*
X020627Y037919D01*
X020250Y036680D02*
X020096Y036680D01*
X020020Y036604D01*
X020020Y036297D01*
X020327Y036604D01*
X020327Y036297D01*
X020250Y036220D01*
X020096Y036220D01*
X020020Y036297D01*
X019866Y036220D02*
X019559Y036220D01*
X019406Y036220D02*
X019252Y036373D01*
X019329Y036373D02*
X019099Y036373D01*
X019099Y036220D02*
X019099Y036680D01*
X019329Y036680D01*
X019406Y036604D01*
X019406Y036450D01*
X019329Y036373D01*
X019559Y036527D02*
X019713Y036680D01*
X019713Y036220D01*
X020250Y036680D02*
X020327Y036604D01*
X020476Y035447D02*
X020400Y035371D01*
X020400Y035217D01*
X020476Y035140D01*
X020553Y035140D01*
X020630Y035217D01*
X020630Y035447D01*
X020783Y035447D02*
X020476Y035447D01*
X020783Y035447D02*
X020860Y035371D01*
X020860Y035217D01*
X020783Y035140D01*
X020860Y034987D02*
X020707Y034833D01*
X020707Y034910D02*
X020707Y034680D01*
X020860Y034680D02*
X020400Y034680D01*
X020400Y034910D01*
X020476Y034987D01*
X020630Y034987D01*
X020707Y034910D01*
X019560Y030990D02*
X019330Y030760D01*
X019637Y030760D01*
X019560Y030530D02*
X019560Y030990D01*
X019176Y030914D02*
X019176Y030760D01*
X019099Y030683D01*
X018869Y030683D01*
X018869Y030530D02*
X018869Y030990D01*
X019099Y030990D01*
X019176Y030914D01*
X019023Y030683D02*
X019176Y030530D01*
X019189Y029710D02*
X018959Y029710D01*
X018959Y029250D01*
X018959Y029403D02*
X019189Y029403D01*
X019266Y029480D01*
X019266Y029634D01*
X019189Y029710D01*
X019420Y029634D02*
X019496Y029710D01*
X019650Y029710D01*
X019727Y029634D01*
X019727Y029557D01*
X019650Y029480D01*
X019727Y029403D01*
X019727Y029327D01*
X019650Y029250D01*
X019496Y029250D01*
X019420Y029327D01*
X019266Y029250D02*
X019113Y029403D01*
X019573Y029480D02*
X019650Y029480D01*
X032722Y030700D02*
X032876Y030700D01*
X032799Y030700D02*
X032799Y031160D01*
X032722Y031160D02*
X032876Y031160D01*
X033029Y031084D02*
X033029Y030777D01*
X033106Y030700D01*
X033259Y030700D01*
X033336Y030777D01*
X033490Y030700D02*
X033797Y030700D01*
X033643Y030700D02*
X033643Y031160D01*
X033490Y031007D01*
X033336Y031084D02*
X033259Y031160D01*
X033106Y031160D01*
X033029Y031084D01*
X040222Y031160D02*
X040376Y031160D01*
X040299Y031160D02*
X040299Y030700D01*
X040222Y030700D02*
X040376Y030700D01*
X040529Y030777D02*
X040606Y030700D01*
X040759Y030700D01*
X040836Y030777D01*
X040990Y030700D02*
X041297Y031007D01*
X041297Y031084D01*
X041220Y031160D01*
X041066Y031160D01*
X040990Y031084D01*
X040836Y031084D02*
X040759Y031160D01*
X040606Y031160D01*
X040529Y031084D01*
X040529Y030777D01*
X040990Y030700D02*
X041297Y030700D01*
X049168Y031672D02*
X049168Y031826D01*
X049168Y031749D02*
X049552Y031749D01*
X049629Y031672D01*
X049629Y031596D01*
X049552Y031519D01*
X049629Y031979D02*
X049629Y032286D01*
X049629Y032133D02*
X049168Y032133D01*
X049322Y031979D01*
X049245Y032440D02*
X049168Y032516D01*
X049168Y032670D01*
X049245Y032747D01*
X049322Y032747D01*
X049398Y032670D01*
X049475Y032747D01*
X049552Y032747D01*
X049629Y032670D01*
X049629Y032516D01*
X049552Y032440D01*
X049398Y032593D02*
X049398Y032670D01*
X049552Y036519D02*
X049629Y036596D01*
X049629Y036672D01*
X049552Y036749D01*
X049168Y036749D01*
X049168Y036672D02*
X049168Y036826D01*
X049245Y036979D02*
X049168Y037056D01*
X049168Y037209D01*
X049245Y037286D01*
X049322Y037286D01*
X049629Y036979D01*
X049629Y037286D01*
X049552Y041519D02*
X049629Y041596D01*
X049629Y041672D01*
X049552Y041749D01*
X049168Y041749D01*
X049168Y041672D02*
X049168Y041826D01*
X049322Y041979D02*
X049168Y042133D01*
X049629Y042133D01*
X049629Y042286D02*
X049629Y041979D01*
X049552Y042440D02*
X049629Y042516D01*
X049629Y042670D01*
X049552Y042747D01*
X049475Y042747D01*
X049398Y042670D01*
X049398Y042440D01*
X049552Y042440D01*
X049398Y042440D02*
X049245Y042593D01*
X049168Y042747D01*
X049552Y046519D02*
X049629Y046596D01*
X049629Y046672D01*
X049552Y046749D01*
X049168Y046749D01*
X049168Y046672D02*
X049168Y046826D01*
X049322Y046979D02*
X049168Y047133D01*
X049629Y047133D01*
X049629Y047286D02*
X049629Y046979D01*
X049552Y047440D02*
X049629Y047516D01*
X049629Y047670D01*
X049552Y047747D01*
X049398Y047747D01*
X049322Y047670D01*
X049322Y047593D01*
X049398Y047440D01*
X049168Y047440D01*
X049168Y047747D01*
X041297Y041084D02*
X041297Y041007D01*
X041220Y040930D01*
X041297Y040853D01*
X041297Y040777D01*
X041220Y040700D01*
X041066Y040700D01*
X040990Y040777D01*
X040836Y040700D02*
X040529Y040700D01*
X040683Y040700D02*
X040683Y041160D01*
X040529Y041007D01*
X040376Y041084D02*
X040299Y041160D01*
X040146Y041160D01*
X040069Y041084D01*
X040069Y040777D01*
X040146Y040700D01*
X040299Y040700D01*
X040376Y040777D01*
X039915Y040700D02*
X039762Y040700D01*
X039839Y040700D02*
X039839Y041160D01*
X039915Y041160D02*
X039762Y041160D01*
X040990Y041084D02*
X041066Y041160D01*
X041220Y041160D01*
X041297Y041084D01*
X041220Y040930D02*
X041143Y040930D01*
X033797Y040930D02*
X033490Y040930D01*
X033720Y041160D01*
X033720Y040700D01*
X033336Y040700D02*
X033029Y040700D01*
X033183Y040700D02*
X033183Y041160D01*
X033029Y041007D01*
X032876Y041084D02*
X032799Y041160D01*
X032646Y041160D01*
X032569Y041084D01*
X032569Y040777D01*
X032646Y040700D01*
X032799Y040700D01*
X032876Y040777D01*
X032415Y040700D02*
X032262Y040700D01*
X032339Y040700D02*
X032339Y041160D01*
X032415Y041160D02*
X032262Y041160D01*
X049168Y027209D02*
X049398Y026979D01*
X049398Y027286D01*
X049168Y027209D02*
X049629Y027209D01*
X049552Y026749D02*
X049168Y026749D01*
X049168Y026672D02*
X049168Y026826D01*
X049552Y026749D02*
X049629Y026672D01*
X049629Y026596D01*
X049552Y026519D01*
X049552Y022286D02*
X049629Y022209D01*
X049629Y022056D01*
X049552Y021979D01*
X049398Y022133D02*
X049398Y022209D01*
X049475Y022286D01*
X049552Y022286D01*
X049398Y022209D02*
X049322Y022286D01*
X049245Y022286D01*
X049168Y022209D01*
X049168Y022056D01*
X049245Y021979D01*
X049168Y021826D02*
X049168Y021672D01*
X049168Y021749D02*
X049552Y021749D01*
X049629Y021672D01*
X049629Y021596D01*
X049552Y021519D01*
X049552Y017286D02*
X049475Y017286D01*
X049398Y017209D01*
X049398Y016979D01*
X049552Y016979D01*
X049629Y017056D01*
X049629Y017209D01*
X049552Y017286D01*
X049245Y017133D02*
X049398Y016979D01*
X049245Y017133D02*
X049168Y017286D01*
X049168Y016826D02*
X049168Y016672D01*
X049168Y016749D02*
X049552Y016749D01*
X049629Y016672D01*
X049629Y016596D01*
X049552Y016519D01*
X049552Y012286D02*
X049629Y012209D01*
X049629Y012056D01*
X049552Y011979D01*
X049398Y011979D02*
X049322Y012133D01*
X049322Y012209D01*
X049398Y012286D01*
X049552Y012286D01*
X049398Y011979D02*
X049168Y011979D01*
X049168Y012286D01*
X049168Y011826D02*
X049168Y011672D01*
X049168Y011749D02*
X049552Y011749D01*
X049629Y011672D01*
X049629Y011596D01*
X049552Y011519D01*
X049552Y007286D02*
X049629Y007209D01*
X049629Y007056D01*
X049552Y006979D01*
X049475Y006979D01*
X049398Y007056D01*
X049398Y007209D01*
X049475Y007286D01*
X049552Y007286D01*
X049398Y007209D02*
X049322Y007286D01*
X049245Y007286D01*
X049168Y007209D01*
X049168Y007056D01*
X049245Y006979D01*
X049322Y006979D01*
X049398Y007056D01*
X049168Y006826D02*
X049168Y006672D01*
X049168Y006749D02*
X049552Y006749D01*
X049629Y006672D01*
X049629Y006596D01*
X049552Y006519D01*
X049245Y002286D02*
X049552Y001979D01*
X049629Y001979D01*
X049552Y001749D02*
X049168Y001749D01*
X049168Y001672D02*
X049168Y001826D01*
X049168Y001979D02*
X049168Y002286D01*
X049245Y002286D01*
X049552Y001749D02*
X049629Y001672D01*
X049629Y001596D01*
X049552Y001519D01*
X041297Y001084D02*
X041297Y001007D01*
X041220Y000930D01*
X041066Y000930D01*
X040990Y001007D01*
X040990Y001084D01*
X041066Y001160D01*
X041220Y001160D01*
X041297Y001084D01*
X041220Y000930D02*
X041297Y000853D01*
X041297Y000777D01*
X041220Y000700D01*
X041066Y000700D01*
X040990Y000777D01*
X040990Y000853D01*
X041066Y000930D01*
X040836Y000777D02*
X040759Y000700D01*
X040606Y000700D01*
X040529Y000777D01*
X040529Y001084D01*
X040606Y001160D01*
X040759Y001160D01*
X040836Y001084D01*
X040376Y001160D02*
X040222Y001160D01*
X040299Y001160D02*
X040299Y000700D01*
X040222Y000700D02*
X040376Y000700D01*
X033797Y001084D02*
X033490Y000777D01*
X033490Y000700D01*
X033336Y000777D02*
X033259Y000700D01*
X033106Y000700D01*
X033029Y000777D01*
X033029Y001084D01*
X033106Y001160D01*
X033259Y001160D01*
X033336Y001084D01*
X033490Y001160D02*
X033797Y001160D01*
X033797Y001084D01*
X032876Y001160D02*
X032722Y001160D01*
X032799Y001160D02*
X032799Y000700D01*
X032722Y000700D02*
X032876Y000700D01*
X032876Y010700D02*
X032722Y010700D01*
X032799Y010700D02*
X032799Y011160D01*
X032722Y011160D02*
X032876Y011160D01*
X033029Y011084D02*
X033029Y010777D01*
X033106Y010700D01*
X033259Y010700D01*
X033336Y010777D01*
X033490Y010777D02*
X033566Y010700D01*
X033720Y010700D01*
X033797Y010777D01*
X033797Y010930D01*
X033720Y011007D01*
X033643Y011007D01*
X033490Y010930D01*
X033490Y011160D01*
X033797Y011160D01*
X033336Y011084D02*
X033259Y011160D01*
X033106Y011160D01*
X033029Y011084D01*
X040222Y011160D02*
X040376Y011160D01*
X040299Y011160D02*
X040299Y010700D01*
X040222Y010700D02*
X040376Y010700D01*
X040529Y010777D02*
X040606Y010700D01*
X040759Y010700D01*
X040836Y010777D01*
X040990Y010777D02*
X041066Y010700D01*
X041220Y010700D01*
X041297Y010777D01*
X041297Y010853D01*
X041220Y010930D01*
X040990Y010930D01*
X040990Y010777D01*
X040990Y010930D02*
X041143Y011084D01*
X041297Y011160D01*
X040836Y011084D02*
X040759Y011160D01*
X040606Y011160D01*
X040529Y011084D01*
X040529Y010777D01*
X040606Y020700D02*
X040759Y020700D01*
X040836Y020777D01*
X040990Y020930D02*
X041297Y020930D01*
X041220Y020700D02*
X041220Y021160D01*
X040990Y020930D01*
X040836Y021084D02*
X040759Y021160D01*
X040606Y021160D01*
X040529Y021084D01*
X040529Y020777D01*
X040606Y020700D01*
X040376Y020700D02*
X040222Y020700D01*
X040299Y020700D02*
X040299Y021160D01*
X040222Y021160D02*
X040376Y021160D01*
X033797Y021084D02*
X033797Y021007D01*
X033720Y020930D01*
X033797Y020853D01*
X033797Y020777D01*
X033720Y020700D01*
X033566Y020700D01*
X033490Y020777D01*
X033336Y020777D02*
X033259Y020700D01*
X033106Y020700D01*
X033029Y020777D01*
X033029Y021084D01*
X033106Y021160D01*
X033259Y021160D01*
X033336Y021084D01*
X033490Y021084D02*
X033566Y021160D01*
X033720Y021160D01*
X033797Y021084D01*
X033720Y020930D02*
X033643Y020930D01*
X032876Y020700D02*
X032722Y020700D01*
X032799Y020700D02*
X032799Y021160D01*
X032722Y021160D02*
X032876Y021160D01*
X022831Y009660D02*
X022831Y009200D01*
X022678Y009200D02*
X022985Y009200D01*
X022678Y009507D02*
X022831Y009660D01*
X022371Y009660D02*
X022371Y009200D01*
X022524Y009200D02*
X022217Y009200D01*
X022064Y009277D02*
X021987Y009200D01*
X021834Y009200D01*
X021757Y009277D01*
X021757Y009584D01*
X021834Y009660D01*
X021987Y009660D01*
X022064Y009584D01*
X022217Y009507D02*
X022371Y009660D01*
X021603Y009660D02*
X021450Y009660D01*
X021527Y009660D02*
X021527Y009200D01*
X021603Y009200D02*
X021450Y009200D01*
X015485Y009200D02*
X015178Y009200D01*
X015485Y009507D01*
X015485Y009584D01*
X015408Y009660D01*
X015254Y009660D01*
X015178Y009584D01*
X014871Y009660D02*
X014871Y009200D01*
X015024Y009200D02*
X014717Y009200D01*
X014564Y009277D02*
X014487Y009200D01*
X014334Y009200D01*
X014257Y009277D01*
X014257Y009584D01*
X014334Y009660D01*
X014487Y009660D01*
X014564Y009584D01*
X014717Y009507D02*
X014871Y009660D01*
X014103Y009660D02*
X013950Y009660D01*
X014027Y009660D02*
X014027Y009200D01*
X014103Y009200D02*
X013950Y009200D01*
D17*
X012180Y008692D02*
X012180Y008668D01*
X012180Y011668D02*
X012180Y011692D01*
X012180Y018668D02*
X012180Y018692D01*
X019680Y018692D02*
X019680Y018668D01*
X019680Y011692D02*
X019680Y011668D01*
X019680Y008692D02*
X019680Y008668D01*
X019680Y001692D02*
X019680Y001668D01*
X012180Y001668D02*
X012180Y001692D01*
X035680Y001668D02*
X035680Y001692D01*
X035680Y008668D02*
X035680Y008692D01*
X035680Y011668D02*
X035680Y011692D01*
X035680Y018668D02*
X035680Y018692D01*
X035680Y021668D02*
X035680Y021692D01*
X035680Y028668D02*
X035680Y028692D01*
X035680Y031668D02*
X035680Y031692D01*
X035680Y038668D02*
X035680Y038692D01*
X035680Y041668D02*
X035680Y041692D01*
X035680Y048668D02*
X035680Y048692D01*
X043180Y048692D02*
X043180Y048668D01*
X043180Y041592D02*
X043180Y041568D01*
X043180Y038692D02*
X043180Y038668D01*
X043180Y031692D02*
X043180Y031668D01*
X043180Y028692D02*
X043180Y028668D01*
X043180Y021692D02*
X043180Y021668D01*
X043180Y018692D02*
X043180Y018668D01*
X043180Y011692D02*
X043180Y011668D01*
X043180Y008692D02*
X043180Y008668D01*
X043180Y001692D02*
X043180Y001668D01*
X009192Y033580D02*
X009168Y033580D01*
X007172Y031270D02*
X007148Y031270D01*
X005682Y029900D02*
X005658Y029900D01*
X005668Y033110D02*
X005692Y033110D01*
X003630Y033658D02*
X003630Y033682D01*
X004220Y039168D02*
X004220Y039192D01*
X007368Y044430D02*
X007392Y044430D01*
X009968Y044430D02*
X009992Y044430D01*
X010518Y044430D02*
X010542Y044430D01*
X014680Y039942D02*
X014680Y039918D01*
X012692Y036430D02*
X012668Y036430D01*
D18*
X012960Y036515D02*
X012985Y036490D01*
X013085Y036490D01*
X013110Y036515D01*
X013110Y036565D01*
X013085Y036590D01*
X013085Y036638D02*
X013110Y036663D01*
X013110Y036713D01*
X013085Y036738D01*
X013035Y036738D01*
X013010Y036713D01*
X013010Y036688D01*
X013035Y036638D01*
X012960Y036638D01*
X012960Y036738D01*
X012985Y036590D02*
X012960Y036565D01*
X012960Y036515D01*
X009610Y033863D02*
X009460Y033863D01*
X009535Y033788D01*
X009535Y033888D01*
X009585Y033740D02*
X009610Y033715D01*
X009610Y033665D01*
X009585Y033640D01*
X009485Y033640D01*
X009460Y033665D01*
X009460Y033715D01*
X009485Y033740D01*
X007781Y032657D02*
X007781Y032607D01*
X007756Y032582D01*
X007756Y032535D02*
X007781Y032510D01*
X007781Y032460D01*
X007756Y032435D01*
X007656Y032435D01*
X007631Y032460D01*
X007631Y032510D01*
X007656Y032535D01*
X007656Y032582D02*
X007631Y032607D01*
X007631Y032657D01*
X007656Y032682D01*
X007681Y032682D01*
X007706Y032657D01*
X007731Y032682D01*
X007756Y032682D01*
X007781Y032657D01*
X007706Y032657D02*
X007706Y032632D01*
X007565Y031578D02*
X007540Y031578D01*
X007515Y031553D01*
X007515Y031528D01*
X007515Y031553D02*
X007490Y031578D01*
X007465Y031578D01*
X007440Y031553D01*
X007440Y031503D01*
X007465Y031478D01*
X007565Y031478D02*
X007590Y031503D01*
X007590Y031553D01*
X007565Y031578D01*
X007590Y031430D02*
X007590Y031330D01*
X007590Y031380D02*
X007440Y031380D01*
X007490Y031330D01*
X007465Y031283D02*
X007440Y031258D01*
X007440Y031208D01*
X007465Y031183D01*
X007565Y031183D01*
X007590Y031208D01*
X007590Y031258D01*
X007565Y031283D01*
X006100Y030183D02*
X006100Y030133D01*
X006075Y030108D01*
X006025Y030108D02*
X006000Y030158D01*
X006000Y030183D01*
X006025Y030208D01*
X006075Y030208D01*
X006100Y030183D01*
X006025Y030108D02*
X005950Y030108D01*
X005950Y030208D01*
X005950Y030010D02*
X006100Y030010D01*
X006100Y029960D02*
X006100Y030060D01*
X006000Y029960D02*
X005950Y030010D01*
X005975Y029913D02*
X005950Y029888D01*
X005950Y029838D01*
X005975Y029813D01*
X006075Y029813D01*
X006100Y029838D01*
X006100Y029888D01*
X006075Y029913D01*
X005375Y032765D02*
X005400Y032790D01*
X005400Y032840D01*
X005375Y032865D01*
X005400Y032912D02*
X005400Y033012D01*
X005400Y033060D02*
X005300Y033160D01*
X005275Y033160D01*
X005250Y033135D01*
X005250Y033085D01*
X005275Y033060D01*
X005250Y032962D02*
X005400Y032962D01*
X005400Y033060D02*
X005400Y033160D01*
X005250Y032962D02*
X005300Y032912D01*
X005275Y032865D02*
X005250Y032840D01*
X005250Y032790D01*
X005275Y032765D01*
X005375Y032765D01*
X003655Y033950D02*
X003655Y034100D01*
X003580Y034025D01*
X003680Y034025D01*
X003532Y033950D02*
X003432Y033950D01*
X003482Y033950D02*
X003482Y034100D01*
X003432Y034050D01*
X003385Y034075D02*
X003360Y034100D01*
X003310Y034100D01*
X003285Y034075D01*
X003285Y033975D01*
X003310Y033950D01*
X003360Y033950D01*
X003385Y033975D01*
X001998Y032705D02*
X001998Y032555D01*
X001948Y032555D02*
X002048Y032555D01*
X001948Y032655D02*
X001998Y032705D01*
X001900Y032680D02*
X001900Y032630D01*
X001875Y032605D01*
X001800Y032605D01*
X001800Y032555D02*
X001800Y032705D01*
X001875Y032705D01*
X001900Y032680D01*
X001850Y032605D02*
X001900Y032555D01*
X001865Y031715D02*
X001890Y031690D01*
X001890Y031640D01*
X001865Y031615D01*
X001790Y031615D01*
X001790Y031565D02*
X001790Y031715D01*
X001865Y031715D01*
X001938Y031690D02*
X001963Y031715D01*
X002013Y031715D01*
X002038Y031690D01*
X002038Y031665D01*
X001938Y031565D01*
X002038Y031565D01*
X001890Y031565D02*
X001840Y031615D01*
X004158Y038750D02*
X004208Y038750D01*
X004233Y038775D01*
X004280Y038750D02*
X004380Y038750D01*
X004330Y038750D02*
X004330Y038900D01*
X004280Y038850D01*
X004233Y038875D02*
X004208Y038900D01*
X004158Y038900D01*
X004133Y038875D01*
X004133Y038775D01*
X004158Y038750D01*
X004428Y038775D02*
X004528Y038875D01*
X004528Y038775D01*
X004503Y038750D01*
X004453Y038750D01*
X004428Y038775D01*
X004428Y038875D01*
X004453Y038900D01*
X004503Y038900D01*
X004528Y038875D01*
X006975Y044085D02*
X007075Y044085D01*
X007100Y044110D01*
X007100Y044160D01*
X007075Y044185D01*
X007075Y044232D02*
X007100Y044257D01*
X007100Y044307D01*
X007075Y044332D01*
X006975Y044332D01*
X006950Y044307D01*
X006950Y044257D01*
X006975Y044232D01*
X007000Y044232D01*
X007025Y044257D01*
X007025Y044332D01*
X006975Y044185D02*
X006950Y044160D01*
X006950Y044110D01*
X006975Y044085D01*
X009550Y044110D02*
X009575Y044085D01*
X009675Y044085D01*
X009700Y044110D01*
X009700Y044160D01*
X009675Y044185D01*
X009675Y044232D02*
X009650Y044232D01*
X009625Y044257D01*
X009625Y044307D01*
X009650Y044332D01*
X009675Y044332D01*
X009700Y044307D01*
X009700Y044257D01*
X009675Y044232D01*
X009625Y044257D02*
X009600Y044232D01*
X009575Y044232D01*
X009550Y044257D01*
X009550Y044307D01*
X009575Y044332D01*
X009600Y044332D01*
X009625Y044307D01*
X009575Y044185D02*
X009550Y044160D01*
X009550Y044110D01*
X010850Y044660D02*
X010875Y044635D01*
X010975Y044635D01*
X011000Y044660D01*
X011000Y044710D01*
X010975Y044735D01*
X010975Y044782D02*
X011000Y044782D01*
X010975Y044782D02*
X010875Y044882D01*
X010850Y044882D01*
X010850Y044782D01*
X010875Y044735D02*
X010850Y044710D01*
X010850Y044660D01*
X014360Y040360D02*
X014335Y040335D01*
X014335Y040235D01*
X014360Y040210D01*
X014410Y040210D01*
X014435Y040235D01*
X014482Y040235D02*
X014507Y040210D01*
X014557Y040210D01*
X014582Y040235D01*
X014582Y040260D01*
X014557Y040285D01*
X014482Y040285D01*
X014482Y040235D01*
X014482Y040285D02*
X014532Y040335D01*
X014582Y040360D01*
X014435Y040335D02*
X014410Y040360D01*
X014360Y040360D01*
X035335Y039085D02*
X035335Y038985D01*
X035360Y038960D01*
X035410Y038960D01*
X035435Y038985D01*
X035482Y038960D02*
X035582Y038960D01*
X035532Y038960D02*
X035532Y039110D01*
X035482Y039060D01*
X035435Y039085D02*
X035410Y039110D01*
X035360Y039110D01*
X035335Y039085D01*
X035618Y041250D02*
X035668Y041250D01*
X035693Y041275D01*
X035740Y041275D02*
X035765Y041250D01*
X035815Y041250D01*
X035840Y041275D01*
X035840Y041325D01*
X035815Y041350D01*
X035790Y041350D01*
X035740Y041325D01*
X035740Y041400D01*
X035840Y041400D01*
X035888Y041375D02*
X035913Y041400D01*
X035963Y041400D01*
X035988Y041375D01*
X035988Y041350D01*
X035963Y041325D01*
X035988Y041300D01*
X035988Y041275D01*
X035963Y041250D01*
X035913Y041250D01*
X035888Y041275D01*
X035938Y041325D02*
X035963Y041325D01*
X035693Y041375D02*
X035668Y041400D01*
X035618Y041400D01*
X035593Y041375D01*
X035593Y041275D01*
X035618Y041250D01*
X035768Y045075D02*
X035743Y045100D01*
X035743Y045200D01*
X035768Y045225D01*
X035818Y045225D01*
X035843Y045200D01*
X035890Y045225D02*
X035890Y045150D01*
X035940Y045175D01*
X035965Y045175D01*
X035990Y045150D01*
X035990Y045100D01*
X035965Y045075D01*
X035915Y045075D01*
X035890Y045100D01*
X035843Y045100D02*
X035818Y045075D01*
X035768Y045075D01*
X035890Y045225D02*
X035990Y045225D01*
X036038Y045150D02*
X036138Y045150D01*
X036113Y045075D02*
X036113Y045225D01*
X036038Y045150D01*
X035730Y048960D02*
X035630Y048960D01*
X035730Y049060D01*
X035730Y049085D01*
X035705Y049110D01*
X035655Y049110D01*
X035630Y049085D01*
X035582Y049110D02*
X035482Y049110D01*
X035482Y049035D01*
X035532Y049060D01*
X035557Y049060D01*
X035582Y049035D01*
X035582Y048985D01*
X035557Y048960D01*
X035507Y048960D01*
X035482Y048985D01*
X035435Y048985D02*
X035410Y048960D01*
X035360Y048960D01*
X035335Y048985D01*
X035335Y049085D01*
X035360Y049110D01*
X035410Y049110D01*
X035435Y049085D01*
X042835Y049085D02*
X042835Y048985D01*
X042860Y048960D01*
X042910Y048960D01*
X042935Y048985D01*
X042982Y049035D02*
X043082Y049035D01*
X043130Y049060D02*
X043155Y049035D01*
X043230Y049035D01*
X043230Y048985D02*
X043230Y049085D01*
X043205Y049110D01*
X043155Y049110D01*
X043130Y049085D01*
X043130Y049060D01*
X043130Y048985D02*
X043155Y048960D01*
X043205Y048960D01*
X043230Y048985D01*
X043057Y048960D02*
X043057Y049110D01*
X042982Y049035D01*
X042935Y049085D02*
X042910Y049110D01*
X042860Y049110D01*
X042835Y049085D01*
X043268Y045225D02*
X043243Y045200D01*
X043243Y045100D01*
X043268Y045075D01*
X043318Y045075D01*
X043343Y045100D01*
X043390Y045100D02*
X043415Y045075D01*
X043465Y045075D01*
X043490Y045100D01*
X043490Y045150D01*
X043465Y045175D01*
X043440Y045175D01*
X043390Y045150D01*
X043390Y045225D01*
X043490Y045225D01*
X043538Y045175D02*
X043588Y045225D01*
X043588Y045075D01*
X043538Y045075D02*
X043638Y045075D01*
X043343Y045200D02*
X043318Y045225D01*
X043268Y045225D01*
X043240Y041300D02*
X043240Y041225D01*
X043290Y041250D01*
X043315Y041250D01*
X043340Y041225D01*
X043340Y041175D01*
X043315Y041150D01*
X043265Y041150D01*
X043240Y041175D01*
X043193Y041175D02*
X043168Y041150D01*
X043118Y041150D01*
X043093Y041175D01*
X043093Y041275D01*
X043118Y041300D01*
X043168Y041300D01*
X043193Y041275D01*
X043240Y041300D02*
X043340Y041300D01*
X043388Y041275D02*
X043413Y041300D01*
X043463Y041300D01*
X043488Y041275D01*
X043388Y041175D01*
X043413Y041150D01*
X043463Y041150D01*
X043488Y041175D01*
X043488Y041275D01*
X043388Y041275D02*
X043388Y041175D01*
X043230Y039110D02*
X043180Y039085D01*
X043130Y039035D01*
X043205Y039035D01*
X043230Y039010D01*
X043230Y038985D01*
X043205Y038960D01*
X043155Y038960D01*
X043130Y038985D01*
X043130Y039035D01*
X043082Y038960D02*
X042982Y038960D01*
X043032Y038960D02*
X043032Y039110D01*
X042982Y039060D01*
X042935Y039085D02*
X042910Y039110D01*
X042860Y039110D01*
X042835Y039085D01*
X042835Y038985D01*
X042860Y038960D01*
X042910Y038960D01*
X042935Y038985D01*
X043268Y035225D02*
X043243Y035200D01*
X043243Y035100D01*
X043268Y035075D01*
X043318Y035075D01*
X043343Y035100D01*
X043390Y035150D02*
X043490Y035150D01*
X043538Y035125D02*
X043563Y035150D01*
X043613Y035150D01*
X043638Y035125D01*
X043638Y035100D01*
X043613Y035075D01*
X043563Y035075D01*
X043538Y035100D01*
X043538Y035125D01*
X043563Y035150D02*
X043538Y035175D01*
X043538Y035200D01*
X043563Y035225D01*
X043613Y035225D01*
X043638Y035200D01*
X043638Y035175D01*
X043613Y035150D01*
X043465Y035075D02*
X043465Y035225D01*
X043390Y035150D01*
X043343Y035200D02*
X043318Y035225D01*
X043268Y035225D01*
X043290Y031400D02*
X043290Y031250D01*
X043240Y031250D02*
X043340Y031250D01*
X043388Y031250D02*
X043388Y031275D01*
X043488Y031375D01*
X043488Y031400D01*
X043388Y031400D01*
X043290Y031400D02*
X043240Y031350D01*
X043193Y031375D02*
X043168Y031400D01*
X043118Y031400D01*
X043093Y031375D01*
X043093Y031275D01*
X043118Y031250D01*
X043168Y031250D01*
X043193Y031275D01*
X043205Y029110D02*
X043155Y029110D01*
X043130Y029085D01*
X043082Y029085D02*
X043057Y029110D01*
X043007Y029110D01*
X042982Y029085D01*
X042935Y029085D02*
X042910Y029110D01*
X042860Y029110D01*
X042835Y029085D01*
X042835Y028985D01*
X042860Y028960D01*
X042910Y028960D01*
X042935Y028985D01*
X042982Y028960D02*
X043082Y029060D01*
X043082Y029085D01*
X043082Y028960D02*
X042982Y028960D01*
X043130Y028960D02*
X043230Y029060D01*
X043230Y029085D01*
X043205Y029110D01*
X043230Y028960D02*
X043130Y028960D01*
X043268Y025225D02*
X043243Y025200D01*
X043243Y025100D01*
X043268Y025075D01*
X043318Y025075D01*
X043343Y025100D01*
X043390Y025100D02*
X043415Y025075D01*
X043465Y025075D01*
X043490Y025100D01*
X043490Y025125D01*
X043465Y025150D01*
X043440Y025150D01*
X043465Y025150D02*
X043490Y025175D01*
X043490Y025200D01*
X043465Y025225D01*
X043415Y025225D01*
X043390Y025200D01*
X043343Y025200D02*
X043318Y025225D01*
X043268Y025225D01*
X043538Y025200D02*
X043538Y025175D01*
X043563Y025150D01*
X043638Y025150D01*
X043638Y025100D02*
X043638Y025200D01*
X043613Y025225D01*
X043563Y025225D01*
X043538Y025200D01*
X043538Y025100D02*
X043563Y025075D01*
X043613Y025075D01*
X043638Y025100D01*
X043463Y021400D02*
X043488Y021375D01*
X043488Y021350D01*
X043463Y021325D01*
X043488Y021300D01*
X043488Y021275D01*
X043463Y021250D01*
X043413Y021250D01*
X043388Y021275D01*
X043340Y021250D02*
X043240Y021250D01*
X043340Y021350D01*
X043340Y021375D01*
X043315Y021400D01*
X043265Y021400D01*
X043240Y021375D01*
X043193Y021375D02*
X043168Y021400D01*
X043118Y021400D01*
X043093Y021375D01*
X043093Y021275D01*
X043118Y021250D01*
X043168Y021250D01*
X043193Y021275D01*
X043388Y021375D02*
X043413Y021400D01*
X043463Y021400D01*
X043463Y021325D02*
X043438Y021325D01*
X043205Y019110D02*
X043230Y019085D01*
X043230Y019060D01*
X043205Y019035D01*
X043155Y019035D01*
X043130Y019060D01*
X043130Y019085D01*
X043155Y019110D01*
X043205Y019110D01*
X043205Y019035D02*
X043230Y019010D01*
X043230Y018985D01*
X043205Y018960D01*
X043155Y018960D01*
X043130Y018985D01*
X043130Y019010D01*
X043155Y019035D01*
X043082Y019060D02*
X043082Y019085D01*
X043057Y019110D01*
X043007Y019110D01*
X042982Y019085D01*
X042935Y019085D02*
X042910Y019110D01*
X042860Y019110D01*
X042835Y019085D01*
X042835Y018985D01*
X042860Y018960D01*
X042910Y018960D01*
X042935Y018985D01*
X042982Y018960D02*
X043082Y019060D01*
X043082Y018960D02*
X042982Y018960D01*
X043268Y015225D02*
X043243Y015200D01*
X043243Y015100D01*
X043268Y015075D01*
X043318Y015075D01*
X043343Y015100D01*
X043390Y015100D02*
X043415Y015075D01*
X043465Y015075D01*
X043490Y015100D01*
X043490Y015125D01*
X043465Y015150D01*
X043440Y015150D01*
X043465Y015150D02*
X043490Y015175D01*
X043490Y015200D01*
X043465Y015225D01*
X043415Y015225D01*
X043390Y015200D01*
X043343Y015200D02*
X043318Y015225D01*
X043268Y015225D01*
X043538Y015150D02*
X043538Y015100D01*
X043563Y015075D01*
X043613Y015075D01*
X043638Y015100D01*
X043638Y015125D01*
X043613Y015150D01*
X043538Y015150D01*
X043588Y015200D01*
X043638Y015225D01*
X043463Y011400D02*
X043413Y011400D01*
X043388Y011375D01*
X043388Y011350D01*
X043413Y011325D01*
X043488Y011325D01*
X043488Y011275D02*
X043488Y011375D01*
X043463Y011400D01*
X043340Y011375D02*
X043315Y011400D01*
X043265Y011400D01*
X043240Y011375D01*
X043193Y011375D02*
X043168Y011400D01*
X043118Y011400D01*
X043093Y011375D01*
X043093Y011275D01*
X043118Y011250D01*
X043168Y011250D01*
X043193Y011275D01*
X043240Y011250D02*
X043340Y011350D01*
X043340Y011375D01*
X043388Y011275D02*
X043413Y011250D01*
X043463Y011250D01*
X043488Y011275D01*
X043340Y011250D02*
X043240Y011250D01*
X043205Y009110D02*
X043130Y009035D01*
X043230Y009035D01*
X043205Y008960D02*
X043205Y009110D01*
X043082Y009085D02*
X043082Y009060D01*
X043057Y009035D01*
X043082Y009010D01*
X043082Y008985D01*
X043057Y008960D01*
X043007Y008960D01*
X042982Y008985D01*
X042935Y008985D02*
X042910Y008960D01*
X042860Y008960D01*
X042835Y008985D01*
X042835Y009085D01*
X042860Y009110D01*
X042910Y009110D01*
X042935Y009085D01*
X042982Y009085D02*
X043007Y009110D01*
X043057Y009110D01*
X043082Y009085D01*
X043057Y009035D02*
X043032Y009035D01*
X043268Y005225D02*
X043243Y005200D01*
X043243Y005100D01*
X043268Y005075D01*
X043318Y005075D01*
X043343Y005100D01*
X043390Y005100D02*
X043415Y005075D01*
X043465Y005075D01*
X043490Y005100D01*
X043490Y005125D01*
X043465Y005150D01*
X043440Y005150D01*
X043465Y005150D02*
X043490Y005175D01*
X043490Y005200D01*
X043465Y005225D01*
X043415Y005225D01*
X043390Y005200D01*
X043343Y005200D02*
X043318Y005225D01*
X043268Y005225D01*
X043538Y005200D02*
X043563Y005225D01*
X043613Y005225D01*
X043638Y005200D01*
X043638Y005175D01*
X043613Y005150D01*
X043638Y005125D01*
X043638Y005100D01*
X043613Y005075D01*
X043563Y005075D01*
X043538Y005100D01*
X043588Y005150D02*
X043613Y005150D01*
X043488Y001400D02*
X043388Y001400D01*
X043388Y001325D01*
X043438Y001350D01*
X043463Y001350D01*
X043488Y001325D01*
X043488Y001275D01*
X043463Y001250D01*
X043413Y001250D01*
X043388Y001275D01*
X043340Y001275D02*
X043315Y001250D01*
X043265Y001250D01*
X043240Y001275D01*
X043193Y001275D02*
X043168Y001250D01*
X043118Y001250D01*
X043093Y001275D01*
X043093Y001375D01*
X043118Y001400D01*
X043168Y001400D01*
X043193Y001375D01*
X043240Y001375D02*
X043265Y001400D01*
X043315Y001400D01*
X043340Y001375D01*
X043340Y001350D01*
X043315Y001325D01*
X043340Y001300D01*
X043340Y001275D01*
X043315Y001325D02*
X043290Y001325D01*
X035988Y001350D02*
X035988Y001375D01*
X035963Y001400D01*
X035913Y001400D01*
X035888Y001375D01*
X035840Y001375D02*
X035840Y001350D01*
X035815Y001325D01*
X035840Y001300D01*
X035840Y001275D01*
X035815Y001250D01*
X035765Y001250D01*
X035740Y001275D01*
X035693Y001275D02*
X035668Y001250D01*
X035618Y001250D01*
X035593Y001275D01*
X035593Y001375D01*
X035618Y001400D01*
X035668Y001400D01*
X035693Y001375D01*
X035740Y001375D02*
X035765Y001400D01*
X035815Y001400D01*
X035840Y001375D01*
X035815Y001325D02*
X035790Y001325D01*
X035888Y001250D02*
X035988Y001350D01*
X035988Y001250D02*
X035888Y001250D01*
X035915Y005075D02*
X035890Y005100D01*
X035915Y005075D02*
X035965Y005075D01*
X035990Y005100D01*
X035990Y005125D01*
X035965Y005150D01*
X035940Y005150D01*
X035965Y005150D02*
X035990Y005175D01*
X035990Y005200D01*
X035965Y005225D01*
X035915Y005225D01*
X035890Y005200D01*
X035843Y005200D02*
X035818Y005225D01*
X035768Y005225D01*
X035743Y005200D01*
X035743Y005100D01*
X035768Y005075D01*
X035818Y005075D01*
X035843Y005100D01*
X036038Y005100D02*
X036138Y005200D01*
X036138Y005100D01*
X036113Y005075D01*
X036063Y005075D01*
X036038Y005100D01*
X036038Y005200D01*
X036063Y005225D01*
X036113Y005225D01*
X036138Y005200D01*
X035730Y008960D02*
X035630Y008960D01*
X035680Y008960D02*
X035680Y009110D01*
X035630Y009060D01*
X035582Y009060D02*
X035557Y009035D01*
X035582Y009010D01*
X035582Y008985D01*
X035557Y008960D01*
X035507Y008960D01*
X035482Y008985D01*
X035435Y008985D02*
X035410Y008960D01*
X035360Y008960D01*
X035335Y008985D01*
X035335Y009085D01*
X035360Y009110D01*
X035410Y009110D01*
X035435Y009085D01*
X035482Y009085D02*
X035507Y009110D01*
X035557Y009110D01*
X035582Y009085D01*
X035582Y009060D01*
X035557Y009035D02*
X035532Y009035D01*
X035618Y011250D02*
X035668Y011250D01*
X035693Y011275D01*
X035740Y011250D02*
X035840Y011350D01*
X035840Y011375D01*
X035815Y011400D01*
X035765Y011400D01*
X035740Y011375D01*
X035693Y011375D02*
X035668Y011400D01*
X035618Y011400D01*
X035593Y011375D01*
X035593Y011275D01*
X035618Y011250D01*
X035740Y011250D02*
X035840Y011250D01*
X035888Y011275D02*
X035913Y011250D01*
X035963Y011250D01*
X035988Y011275D01*
X035988Y011300D01*
X035963Y011325D01*
X035888Y011325D01*
X035888Y011275D01*
X035888Y011325D02*
X035938Y011375D01*
X035988Y011400D01*
X035990Y015075D02*
X035890Y015075D01*
X035990Y015175D01*
X035990Y015200D01*
X035965Y015225D01*
X035915Y015225D01*
X035890Y015200D01*
X035843Y015200D02*
X035818Y015225D01*
X035768Y015225D01*
X035743Y015200D01*
X035743Y015100D01*
X035768Y015075D01*
X035818Y015075D01*
X035843Y015100D01*
X036038Y015100D02*
X036038Y015075D01*
X036038Y015100D02*
X036138Y015200D01*
X036138Y015225D01*
X036038Y015225D01*
X035705Y018960D02*
X035655Y018960D01*
X035630Y018985D01*
X035630Y019035D02*
X035680Y019060D01*
X035705Y019060D01*
X035730Y019035D01*
X035730Y018985D01*
X035705Y018960D01*
X035630Y019035D02*
X035630Y019110D01*
X035730Y019110D01*
X035582Y019085D02*
X035557Y019110D01*
X035507Y019110D01*
X035482Y019085D01*
X035435Y019085D02*
X035410Y019110D01*
X035360Y019110D01*
X035335Y019085D01*
X035335Y018985D01*
X035360Y018960D01*
X035410Y018960D01*
X035435Y018985D01*
X035482Y018960D02*
X035582Y019060D01*
X035582Y019085D01*
X035582Y018960D02*
X035482Y018960D01*
X035618Y021250D02*
X035668Y021250D01*
X035693Y021275D01*
X035740Y021250D02*
X035840Y021350D01*
X035840Y021375D01*
X035815Y021400D01*
X035765Y021400D01*
X035740Y021375D01*
X035693Y021375D02*
X035668Y021400D01*
X035618Y021400D01*
X035593Y021375D01*
X035593Y021275D01*
X035618Y021250D01*
X035740Y021250D02*
X035840Y021250D01*
X035888Y021275D02*
X035988Y021375D01*
X035988Y021275D01*
X035963Y021250D01*
X035913Y021250D01*
X035888Y021275D01*
X035888Y021375D01*
X035913Y021400D01*
X035963Y021400D01*
X035988Y021375D01*
X035965Y025075D02*
X035965Y025225D01*
X035890Y025150D01*
X035990Y025150D01*
X036038Y025200D02*
X036063Y025225D01*
X036113Y025225D01*
X036138Y025200D01*
X036138Y025175D01*
X036038Y025075D01*
X036138Y025075D01*
X035843Y025100D02*
X035818Y025075D01*
X035768Y025075D01*
X035743Y025100D01*
X035743Y025200D01*
X035768Y025225D01*
X035818Y025225D01*
X035843Y025200D01*
X035705Y028960D02*
X035730Y028985D01*
X035730Y029085D01*
X035705Y029110D01*
X035655Y029110D01*
X035630Y029085D01*
X035630Y029060D01*
X035655Y029035D01*
X035730Y029035D01*
X035705Y028960D02*
X035655Y028960D01*
X035630Y028985D01*
X035582Y028960D02*
X035482Y028960D01*
X035532Y028960D02*
X035532Y029110D01*
X035482Y029060D01*
X035435Y029085D02*
X035410Y029110D01*
X035360Y029110D01*
X035335Y029085D01*
X035335Y028985D01*
X035360Y028960D01*
X035410Y028960D01*
X035435Y028985D01*
X035765Y031250D02*
X035740Y031275D01*
X035740Y031375D01*
X035765Y031400D01*
X035815Y031400D01*
X035840Y031375D01*
X035888Y031375D02*
X035913Y031400D01*
X035963Y031400D01*
X035988Y031375D01*
X035988Y031350D01*
X035888Y031250D01*
X035988Y031250D01*
X035840Y031275D02*
X035815Y031250D01*
X035765Y031250D01*
X035768Y035075D02*
X035743Y035100D01*
X035743Y035200D01*
X035768Y035225D01*
X035818Y035225D01*
X035843Y035200D01*
X035890Y035150D02*
X035990Y035150D01*
X036038Y035150D02*
X036088Y035175D01*
X036113Y035175D01*
X036138Y035150D01*
X036138Y035100D01*
X036113Y035075D01*
X036063Y035075D01*
X036038Y035100D01*
X036038Y035150D02*
X036038Y035225D01*
X036138Y035225D01*
X035965Y035225D02*
X035890Y035150D01*
X035843Y035100D02*
X035818Y035075D01*
X035768Y035075D01*
X035965Y035075D02*
X035965Y035225D01*
X019730Y019085D02*
X019730Y019060D01*
X019705Y019035D01*
X019655Y019035D01*
X019630Y019060D01*
X019630Y019085D01*
X019655Y019110D01*
X019705Y019110D01*
X019730Y019085D01*
X019705Y019035D02*
X019730Y019010D01*
X019730Y018985D01*
X019705Y018960D01*
X019655Y018960D01*
X019630Y018985D01*
X019630Y019010D01*
X019655Y019035D01*
X019582Y019010D02*
X019582Y018985D01*
X019557Y018960D01*
X019507Y018960D01*
X019482Y018985D01*
X019435Y018985D02*
X019410Y018960D01*
X019360Y018960D01*
X019335Y018985D01*
X019335Y019085D01*
X019360Y019110D01*
X019410Y019110D01*
X019435Y019085D01*
X019482Y019085D02*
X019507Y019110D01*
X019557Y019110D01*
X019582Y019085D01*
X019582Y019060D01*
X019557Y019035D01*
X019582Y019010D01*
X019557Y019035D02*
X019532Y019035D01*
X019530Y015285D02*
X019530Y015135D01*
X019480Y015135D02*
X019580Y015135D01*
X019480Y015235D02*
X019530Y015285D01*
X019432Y015260D02*
X019407Y015285D01*
X019357Y015285D01*
X019332Y015260D01*
X019285Y015260D02*
X019260Y015285D01*
X019210Y015285D01*
X019185Y015260D01*
X019185Y015160D01*
X019210Y015135D01*
X019260Y015135D01*
X019285Y015160D01*
X019332Y015135D02*
X019432Y015235D01*
X019432Y015260D01*
X019432Y015135D02*
X019332Y015135D01*
X019618Y011400D02*
X019593Y011375D01*
X019593Y011275D01*
X019618Y011250D01*
X019668Y011250D01*
X019693Y011275D01*
X019740Y011275D02*
X019765Y011250D01*
X019815Y011250D01*
X019840Y011275D01*
X019840Y011300D01*
X019815Y011325D01*
X019790Y011325D01*
X019815Y011325D02*
X019840Y011350D01*
X019840Y011375D01*
X019815Y011400D01*
X019765Y011400D01*
X019740Y011375D01*
X019693Y011375D02*
X019668Y011400D01*
X019618Y011400D01*
X019888Y011400D02*
X019988Y011400D01*
X019988Y011375D01*
X019888Y011275D01*
X019888Y011250D01*
X019705Y009110D02*
X019630Y009035D01*
X019730Y009035D01*
X019705Y008960D02*
X019705Y009110D01*
X019582Y009035D02*
X019482Y009035D01*
X019557Y009110D01*
X019557Y008960D01*
X019435Y008985D02*
X019410Y008960D01*
X019360Y008960D01*
X019335Y008985D01*
X019335Y009085D01*
X019360Y009110D01*
X019410Y009110D01*
X019435Y009085D01*
X019407Y005285D02*
X019357Y005285D01*
X019332Y005260D01*
X019285Y005260D02*
X019260Y005285D01*
X019210Y005285D01*
X019185Y005260D01*
X019185Y005160D01*
X019210Y005135D01*
X019260Y005135D01*
X019285Y005160D01*
X019332Y005135D02*
X019432Y005235D01*
X019432Y005260D01*
X019407Y005285D01*
X019480Y005210D02*
X019580Y005210D01*
X019555Y005135D02*
X019555Y005285D01*
X019480Y005210D01*
X019432Y005135D02*
X019332Y005135D01*
X019618Y001400D02*
X019593Y001375D01*
X019593Y001275D01*
X019618Y001250D01*
X019668Y001250D01*
X019693Y001275D01*
X019740Y001325D02*
X019840Y001325D01*
X019888Y001275D02*
X019913Y001250D01*
X019963Y001250D01*
X019988Y001275D01*
X019988Y001300D01*
X019963Y001325D01*
X019938Y001325D01*
X019963Y001325D02*
X019988Y001350D01*
X019988Y001375D01*
X019963Y001400D01*
X019913Y001400D01*
X019888Y001375D01*
X019815Y001400D02*
X019740Y001325D01*
X019693Y001375D02*
X019668Y001400D01*
X019618Y001400D01*
X019815Y001400D02*
X019815Y001250D01*
X012488Y001275D02*
X012488Y001300D01*
X012463Y001325D01*
X012388Y001325D01*
X012388Y001275D01*
X012413Y001250D01*
X012463Y001250D01*
X012488Y001275D01*
X012438Y001375D02*
X012388Y001325D01*
X012340Y001325D02*
X012240Y001325D01*
X012315Y001400D01*
X012315Y001250D01*
X012193Y001275D02*
X012168Y001250D01*
X012118Y001250D01*
X012093Y001275D01*
X012093Y001375D01*
X012118Y001400D01*
X012168Y001400D01*
X012193Y001375D01*
X012438Y001375D02*
X012488Y001400D01*
X012055Y005135D02*
X012005Y005135D01*
X011980Y005160D01*
X011980Y005185D01*
X012005Y005210D01*
X012055Y005210D01*
X012080Y005185D01*
X012080Y005160D01*
X012055Y005135D01*
X012055Y005210D02*
X012080Y005235D01*
X012080Y005260D01*
X012055Y005285D01*
X012005Y005285D01*
X011980Y005260D01*
X011980Y005235D01*
X012005Y005210D01*
X011932Y005135D02*
X011832Y005135D01*
X011882Y005135D02*
X011882Y005285D01*
X011832Y005235D01*
X011785Y005260D02*
X011760Y005285D01*
X011710Y005285D01*
X011685Y005260D01*
X011685Y005160D01*
X011710Y005135D01*
X011760Y005135D01*
X011785Y005160D01*
X011860Y008960D02*
X011910Y008960D01*
X011935Y008985D01*
X011982Y009035D02*
X012082Y009035D01*
X012130Y008985D02*
X012230Y009085D01*
X012230Y009110D01*
X012130Y009110D01*
X012057Y009110D02*
X011982Y009035D01*
X011935Y009085D02*
X011910Y009110D01*
X011860Y009110D01*
X011835Y009085D01*
X011835Y008985D01*
X011860Y008960D01*
X012057Y008960D02*
X012057Y009110D01*
X012130Y008985D02*
X012130Y008960D01*
X012118Y011250D02*
X012168Y011250D01*
X012193Y011275D01*
X012240Y011325D02*
X012340Y011325D01*
X012388Y011275D02*
X012488Y011375D01*
X012488Y011275D01*
X012463Y011250D01*
X012413Y011250D01*
X012388Y011275D01*
X012388Y011375D01*
X012413Y011400D01*
X012463Y011400D01*
X012488Y011375D01*
X012315Y011400D02*
X012240Y011325D01*
X012193Y011375D02*
X012168Y011400D01*
X012118Y011400D01*
X012093Y011375D01*
X012093Y011275D01*
X012118Y011250D01*
X012315Y011250D02*
X012315Y011400D01*
X012080Y015135D02*
X011980Y015135D01*
X011932Y015135D02*
X011832Y015135D01*
X011882Y015135D02*
X011882Y015285D01*
X011832Y015235D01*
X011785Y015260D02*
X011760Y015285D01*
X011710Y015285D01*
X011685Y015260D01*
X011685Y015160D01*
X011710Y015135D01*
X011760Y015135D01*
X011785Y015160D01*
X011980Y015235D02*
X012030Y015285D01*
X012030Y015135D01*
X012057Y018960D02*
X012057Y019110D01*
X011982Y019035D01*
X012082Y019035D01*
X012130Y019060D02*
X012180Y019110D01*
X012180Y018960D01*
X012130Y018960D02*
X012230Y018960D01*
X011935Y018985D02*
X011910Y018960D01*
X011860Y018960D01*
X011835Y018985D01*
X011835Y019085D01*
X011860Y019110D01*
X011910Y019110D01*
X011935Y019085D01*
D19*
X012723Y044210D02*
X013511Y044210D01*
D20*
X001740Y033010D03*
X001730Y032020D03*
D21*
X013271Y047036D02*
X014086Y047036D01*
X014086Y047824D01*
X013271Y047824D01*
X013271Y047036D01*
X013868Y047170D02*
X013870Y047187D01*
X013876Y047203D01*
X013885Y047217D01*
X013897Y047229D01*
X013911Y047238D01*
X013927Y047244D01*
X013944Y047246D01*
X013961Y047244D01*
X013977Y047238D01*
X013991Y047229D01*
X014003Y047217D01*
X014012Y047203D01*
X014018Y047187D01*
X014020Y047170D01*
X014018Y047153D01*
X014012Y047137D01*
X014003Y047123D01*
X013991Y047111D01*
X013977Y047102D01*
X013961Y047096D01*
X013944Y047094D01*
X013927Y047096D01*
X013911Y047102D01*
X013897Y047111D01*
X013885Y047123D01*
X013876Y047137D01*
X013870Y047153D01*
X013868Y047170D01*
M02*
